<svg width="1440" height="259" viewBox="0 0 1440 259" fill="none" xmlns="http://www.w3.org/2000/svg">
<path d="M1494.46 50.6544C1434.11 50.9042 1368.84 47.4066 1309.52 53.8984C1212.91 64.4727 1123.58 90.1649 1027.99 102.976C992.628 107.72 959.057 110.153 924.793 101.707C895.564 94.5119 871.386 81.94 848.609 69.6843C808.409 48.0263 765.609 18.3768 706.806 14.5185C669.081 12.0415 631.899 23.4528 600.079 33.462C564.145 44.7636 530.008 57.7902 494.086 69.1043C461.524 79.3622 422.86 91.3271 384.198 88.1157C350.937 85.3548 322.55 72.4979 298.448 60.0889C251.668 36.0127 202.569 -2.62557 131.751 0.754495C49.1433 4.70211 -12.5983 44.3633 -96.4847 47.0126" stroke="url(#paint0_linear_16_319)" stroke-miterlimit="10"/>
<path d="M1494.42 57.87C1433.73 58.1942 1368.63 53.7645 1308.96 60.6434C1214.31 71.554 1127.31 97.5895 1033.73 110.705C998.068 115.718 965.282 117.915 930.631 109.574C900.949 102.428 875.797 90.1797 852.17 78.0159C810.621 56.6427 765.843 27.095 707.098 22.3357C669.717 19.3025 632.822 30.4767 601.289 40.4427C565.963 51.6267 532.545 64.5737 497.241 75.7515C464.779 86.0284 426.481 97.6499 387.996 93.9946C354.703 90.8268 325.808 77.9125 301.164 65.6337C253.765 42.0567 203.05 4.37847 132.774 7.70971C49.8014 11.6377 -12.2833 51.5548 -96.5343 54.1906" stroke="url(#paint1_linear_16_319)" stroke-miterlimit="10"/>
<path d="M1494.38 64.948C1433.27 65.2524 1368.21 59.6901 1308.11 66.9247C1215.63 78.0468 1131.16 104.357 1039.78 117.71C1003.97 122.941 971.807 124.864 936.868 116.761C906.655 109.757 880.564 97.8569 856.019 85.91C812.735 64.9146 766.387 35.789 707.478 30.1781C670.54 26.6641 634.298 37.3516 603.074 47.2495C568.523 58.21 535.955 71.0462 501.426 82.0193C469.085 92.3027 431.528 103.344 393.276 99.2949C359.829 95.745 330.337 82.8793 304.953 70.7678C256.603 47.7081 204.073 11.1772 134.173 14.4906C50.6918 18.4487 -11.8684 58.6337 -96.6278 61.2872" stroke="url(#paint2_linear_16_319)" stroke-miterlimit="10"/>
<path d="M1494.36 71.8883C1432.75 72.0978 1367.71 65.2338 1307.07 72.7864C1216.91 84.0138 1135.13 110.568 1046.1 124.001C1010.31 129.414 978.587 131.05 943.471 123.297C912.716 116.505 885.707 105.016 860.156 93.4294C814.904 72.9051 767.14 44.4709 708.012 38.071C636.656 30.3415 564.442 69.5531 506.56 87.9827C474.341 98.2476 437.803 108.521 399.883 104.098C366.172 100.159 336.061 87.4171 309.804 75.4851C260.225 52.9608 205.726 17.7272 136.002 21.0597C51.9029 25.0727 -11.2548 65.5505 -96.6219 68.2464" stroke="url(#paint3_linear_16_319)" stroke-miterlimit="10"/>
<path d="M1494.32 78.6847C1432.17 78.7365 1367.13 70.4331 1305.86 78.2533C1218.12 89.4926 1139.15 116.179 1052.59 129.661C1016.93 135.212 985.513 136.542 950.296 129.233C918.977 122.721 891.028 111.737 864.471 100.511C817.251 80.5644 768.059 53.0719 708.635 45.8953C638.363 37.4235 569.256 75.5033 512.447 93.6349C481.036 103.645 444.42 113.725 407.541 108.446C373.302 103.549 343.155 91.7954 315.406 79.8412C264.401 57.8831 207.8 24.0653 138.076 27.4354C53.258 31.5281 -10.5743 72.311 -96.6597 75.0867" stroke="url(#paint4_linear_16_319)" stroke-miterlimit="10"/>
<path d="M1494.28 85.3496C1431.55 85.206 1366.44 75.3379 1304.48 83.4507C1219.24 94.6143 1143.17 121.42 1059.17 134.833C913.273 158.149 837.393 70.6661 709.325 53.6633C640.292 44.4872 574.679 81.1981 518.899 98.9628C487.631 108.904 452.432 117.942 416.017 112.37C381.348 107.065 350.494 95.5671 321.629 83.8356C269.032 62.4371 210.228 30.1476 140.36 33.5736C54.7578 37.7585 -9.82654 78.8588 -96.7076 81.7077" stroke="url(#paint5_linear_16_319)" stroke-miterlimit="10"/>
<path d="M1494.25 91.8707C1430.91 91.4628 1365.69 79.9986 1302.99 88.3538C1220.29 99.3731 1147.12 126.248 1065.74 139.548C922.863 162.889 836.069 79.5686 710.069 61.3752C642.231 51.5697 580.555 86.6563 525.792 104.079C494.657 113.984 460.996 121.823 425.102 116.002C389.969 110.289 358.33 99.0772 328.304 87.5871C274.015 66.8106 212.965 36.0617 142.799 39.5684C56.3565 43.8827 -9.03499 85.2816 -96.756 88.2287" stroke="url(#paint6_linear_16_319)" stroke-miterlimit="10"/>
<path d="M1494.21 98.254C1430.24 97.5757 1364.9 84.459 1301.41 93.0252C1221.24 103.844 1151.07 130.756 1072.21 143.881C932.355 167.161 834.789 88.3585 710.836 68.9746C644.215 58.5585 586.731 91.9211 532.929 109.002C501.905 118.85 469.915 125.423 434.574 119.416C398.956 113.333 366.499 102.363 335.279 91.1515C279.243 70.9968 215.935 41.8386 145.415 45.4259C58.1218 49.8759 -8.13218 91.5858 -96.7262 94.6373" stroke="url(#paint7_linear_16_319)" stroke-miterlimit="10"/>
<path d="M1494.17 104.5C1429.59 103.545 1364.06 88.769 1299.73 97.5147C1222.04 108.089 1154.76 135.02 1078.44 147.925C941.561 171.074 833.532 96.967 711.614 76.4424C646.199 65.4283 593.028 97.0173 540.144 113.768C509.252 123.555 478.824 128.823 444.068 122.604C407.954 116.138 374.645 105.442 342.254 94.5031C284.46 74.9702 218.917 47.409 147.955 51.0891C59.7438 55.6685 -7.32858 97.6707 -96.8068 100.858" stroke="url(#paint8_linear_16_319)" stroke-miterlimit="10"/>
<path d="M1494.14 110.601C1428.95 109.376 1363.21 92.9788 1298.14 101.873C1222.84 112.171 1158.39 139.103 1084.51 151.757C950.336 174.73 832.264 105.407 712.327 83.7537C648.106 72.1541 599.259 101.969 547.238 118.422C516.479 128.146 487.544 132.11 453.452 125.717C416.842 118.862 382.693 108.408 349.141 97.767C289.644 78.8935 221.909 52.8731 150.461 56.6335C61.3659 61.3423 -6.53572 103.687 -96.887 106.947" stroke="url(#paint9_linear_16_319)" stroke-miterlimit="10"/>
<path d="M1494.1 116.572C1428.27 115.088 1362.37 97.1324 1296.51 106.15C1223.47 116.152 1161.74 143.072 1090.16 155.456C958.559 178.223 831.019 113.671 713.095 90.8899C649.948 78.6919 605.468 106.859 554.166 122.981C523.506 132.612 496.089 135.365 462.572 128.792C425.487 121.548 390.509 111.298 355.862 100.962C294.728 82.729 224.903 58.2245 152.957 62.0838C63.0217 66.9159 -5.67621 109.565 -96.8563 112.93" stroke="url(#paint10_linear_16_319)" stroke-miterlimit="10"/>
<path d="M1494.07 122.398C1427.61 120.694 1361.53 101.273 1294.93 110.383C1223.98 120.084 1164.81 147.009 1095.36 159.104C1027.99 170.84 956.386 157.252 893.52 142.765C832.896 128.789 775.275 110.508 713.742 97.8193C651.392 84.9598 611.544 111.804 560.63 127.508C493.021 148.35 423.885 121.563 362.086 104.155C299.47 86.5386 227.675 63.4815 155.253 67.4274C64.5227 72.364 -4.92719 115.312 -96.9141 118.762" stroke="url(#paint11_linear_16_319)" stroke-miterlimit="10"/>
<path d="M1494.03 128.093C1426.96 126.206 1360.87 105.452 1293.42 114.629C1224.36 124.034 1167.54 150.946 1099.96 162.775C1033.21 174.476 959.713 161.434 896.546 148.154C834.693 135.145 775.833 118.019 714.312 104.511C652.792 91.0022 616.782 116.535 566.52 132.015C500.447 152.36 428.432 123.564 367.703 107.372C303.771 90.3284 230.149 68.6565 157.33 72.6578C65.8916 77.6867 -4.24395 120.921 -96.905 124.451" stroke="url(#paint12_linear_16_319)" stroke-miterlimit="10"/>
<path d="M1494 133.644C1426.29 131.612 1360.26 109.707 1292.03 118.938C1224.61 128.052 1169.88 154.956 1104.1 166.559C1037.85 178.204 962.676 165.684 899.219 153.492C836.27 141.388 776.225 125.28 714.806 110.952C685.83 104.195 664.585 103.871 636.535 112.437C613.737 119.401 594.445 129.545 571.68 136.558C541.308 145.926 517.135 145.608 485.364 138.52C447.189 129.99 410 120.198 372.545 110.681C307.54 94.211 232.314 73.7871 159.163 77.8252C67.0951 82.9089 -3.62666 126.43 -96.9507 130.002" stroke="url(#paint13_linear_16_319)" stroke-miterlimit="10"/>
<path d="M1493.96 139.064C1425.63 137.03 1359.8 114.087 1290.77 123.347C1224.69 132.214 1171.83 159.223 1107.37 170.528C1041.47 182.086 964.909 170.076 901.196 158.791C837.483 147.505 776.32 132.22 715.101 117.06C686.811 110.055 666.12 109.025 638.313 117.548C616.267 124.306 597.859 134.315 575.868 141.124C545.662 150.48 521.866 149.424 490.649 142.105C452.287 133.112 414.523 123.338 376.36 114.082C310.537 98.123 233.838 78.8222 160.577 82.8725C68.0006 87.9864 -3.19685 131.769 -96.9739 135.366" stroke="url(#paint14_linear_16_319)" stroke-miterlimit="10"/>
<path d="M1493.93 144.333C1424.96 142.348 1359.5 118.617 1289.7 127.901C1224.6 136.57 1173.39 163.789 1109.82 174.758C1044.01 186.128 966.622 174.655 902.509 164.164C837.877 153.596 776.183 138.941 715.221 122.956C687.505 115.696 667.047 114.134 639.45 122.657C618.001 129.273 600.334 139.221 578.951 145.9C548.888 155.287 525.116 153.699 494.374 146.107C455.958 136.631 417.752 126.831 379.004 117.768C312.748 102.265 234.765 83.9499 161.56 87.9691C68.6189 93.0758 -2.9217 137.108 -97.0965 140.691" stroke="url(#paint15_linear_16_319)" stroke-miterlimit="10"/>
<path d="M1493.89 149.471C1424.29 147.653 1359.4 123.354 1288.83 132.661C1224.41 141.157 1174.29 168.497 1111.49 179.336C1045.89 190.651 967.484 179.42 903.204 169.572C837.908 159.566 775.936 145.306 715.263 128.463C688.002 120.891 667.434 119.029 639.98 127.609C618.973 134.176 601.858 144.131 580.884 150.761C550.932 160.23 526.828 158.372 496.452 150.436C458.114 140.423 419.622 130.553 380.442 121.639C313.987 106.523 235.096 89.0198 162.189 92.9771C69.0273 98.0271 -2.69068 142.297 -97.0863 145.829" stroke="url(#paint16_linear_16_319)" stroke-miterlimit="10"/>
<path d="M1493.85 154.477C1423.89 152.828 1359.46 128.267 1288.45 137.661C1224.25 146.15 1174.44 173.466 1111.83 184.243C1046.3 195.521 967.539 184.063 903.237 174.422C837.708 164.597 775.935 150.443 715.185 133.526C688.023 125.954 667.167 124.342 639.902 132.865C619.038 139.389 602.034 149.257 581.171 155.799C551.318 165.156 526.773 163.347 496.684 155.186C458.513 144.835 419.976 134.89 380.631 126.064C314.495 111.224 234.576 93.9124 162.232 98.0275C69.2027 103.309 -2.97747 146.827 -97.1311 150.817" stroke="url(#paint17_linear_16_319)" stroke-miterlimit="10"/>
<path d="M1493.81 159.403C1423.7 157.828 1359.46 133.104 1288.28 142.611C1224.18 151.175 1174.12 178.259 1111.47 188.968C1045.94 200.17 967.353 188.218 903.15 178.515C837.831 168.64 776.324 154.512 715.152 138.389C657.248 123.13 628.48 146.326 580.728 160.723C550.877 169.723 526.176 168.014 496.364 159.823C458.359 149.378 419.888 139.459 380.553 130.732C314.804 116.15 233.847 98.7546 162.021 103.234C69.3882 109.017 -3.67183 150.755 -97.1978 155.667" stroke="url(#paint18_linear_16_319)" stroke-miterlimit="10"/>
<path d="M1493.78 164.253C1423.46 162.727 1359.37 137.823 1287.98 147.41C1223.87 156.025 1173.61 182.82 1110.93 193.429C1045.4 204.543 967.046 192.142 902.942 182.407C837.878 172.527 776.602 158.462 715.075 143.145C657.655 128.845 627.86 151.625 580.077 165.365C550.226 173.971 525.305 172.312 495.758 164.108C457.929 153.608 419.569 143.764 380.245 135.187C314.76 120.9 232.996 103.684 161.767 108.478C69.5967 114.675 -4.35414 154.59 -97.197 160.317" stroke="url(#paint19_linear_16_319)" stroke-miterlimit="10"/>
<path d="M1493.75 169.015C1423.19 167.527 1359.19 142.422 1287.53 152.053C1223.51 160.655 1172.95 187.143 1110.22 197.639C1044.69 208.566 966.595 195.858 902.613 186.118C837.859 176.269 776.715 162.311 714.965 147.832C657.952 134.478 627.142 156.749 579.238 169.844C549.311 178.018 524.202 176.358 494.876 168.162C457.257 157.643 418.974 147.912 379.716 139.536C314.396 125.587 232.134 108.789 161.39 113.84C69.6718 120.383 -5.12535 158.412 -97.2628 164.873" stroke="url(#paint20_linear_16_319)" stroke-miterlimit="10"/>
<path d="M1493.72 173.696C1422.85 172.22 1358.99 146.922 1286.96 156.557C1222.99 165.11 1172.12 191.297 1109.34 201.579C1043.83 212.313 966.134 199.324 902.175 189.615C837.773 179.83 776.817 166.016 714.81 152.4C658.226 139.973 626.335 161.654 578.212 174.035C548.187 181.764 522.879 180.048 493.74 171.877C456.416 161.306 418.113 151.888 378.999 143.665C313.734 130.097 231.238 113.913 160.902 119.202C69.7807 126.022 -5.92917 162.122 -97.2615 169.216" stroke="url(#paint21_linear_16_319)" stroke-miterlimit="10"/>
<path d="M1493.67 178.29C1422.49 176.813 1358.64 151.295 1286.26 160.918C1222.35 169.401 1171.14 195.237 1108.28 205.307C1042.8 215.796 965.431 202.608 901.592 192.943C837.533 183.259 776.742 169.633 714.59 156.893C658.424 145.374 625.384 166.408 576.976 178.031C546.808 185.278 521.313 183.467 492.34 175.334C455.24 164.833 417.077 155.591 378.051 147.655C312.751 134.507 230.265 119.192 160.304 124.627C69.7673 131.661 -6.79975 165.774 -97.3379 173.44" stroke="url(#paint22_linear_16_319)" stroke-miterlimit="10"/>
<path d="M1493.64 182.783C1422.09 181.299 1358.26 155.563 1285.47 165.109C1221.6 173.486 1170.02 198.946 1107.15 208.771C1041.69 218.998 964.739 205.654 900.956 196.071C837.371 186.538 776.602 173.125 714.382 161.28C658.611 150.657 624.358 170.968 575.62 181.796C545.288 188.535 519.593 186.593 490.742 178.472C453.897 168.071 415.904 159.035 377.004 151.42C311.593 138.754 229.358 124.447 159.696 130.014C69.7883 137.193 -7.60259 169.283 -97.3242 177.433" stroke="url(#paint23_linear_16_319)" stroke-miterlimit="10"/>
<path d="M1493.61 187.189C1421.66 185.672 1357.77 159.692 1284.57 169.187C1220.74 177.415 1168.79 202.467 1105.85 212.023C1040.44 221.949 963.904 208.512 900.264 199.036C837.121 189.629 776.417 176.517 714.173 165.572C658.787 155.839 623.254 175.377 574.153 185.366C543.634 191.554 517.741 189.467 488.978 181.416C452.377 171.138 414.542 162.341 375.758 155.091C310.136 142.906 228.362 129.796 158.954 135.463C69.698 142.769 -8.48374 172.761 -97.3667 181.344" stroke="url(#paint24_linear_16_319)" stroke-miterlimit="10"/>
<path d="M1493.58 191.494C1421.2 189.939 1357.32 163.709 1283.57 173.071C1219.79 181.174 1167.43 205.799 1104.43 215.055C1039.07 224.649 963.013 211.17 899.462 201.812C836.76 192.576 776.111 179.789 713.92 169.758C658.907 160.871 622.018 179.605 572.533 188.723C541.805 194.379 515.713 192.072 487.016 184.146C450.67 174.023 413.014 165.493 374.38 158.63C308.502 146.995 227.389 135.219 158.178 140.956C69.5857 148.263 -9.33146 176.182 -97.3755 185.13" stroke="url(#paint25_linear_16_319)" stroke-miterlimit="10"/>
<path d="M1493.54 195.694C1420.72 194.088 1356.77 167.606 1282.56 176.837C1218.75 184.745 1165.98 208.944 1102.89 217.874C1037.61 227.112 962.08 213.64 898.528 204.42C836.29 195.378 775.684 182.955 713.557 173.844C658.918 165.828 620.594 183.682 570.703 191.885C539.755 196.971 513.476 194.445 484.801 186.557C448.72 176.611 411.251 168.376 372.782 161.937C306.648 150.89 226.349 140.543 157.294 146.349C69.3969 153.701 -10.2225 179.428 -97.4276 188.691" stroke="url(#paint26_linear_16_319)" stroke-miterlimit="10"/>
<path d="M1493.51 199.768C1420.23 198.117 1356.21 171.385 1281.35 180.457C1217.64 188.184 1164.43 211.907 1101.28 220.492C1036.07 229.361 961.058 215.922 897.649 206.884C835.864 198.056 775.301 186.039 713.305 177.843C659.007 170.659 619.171 187.64 568.895 194.885C537.727 199.389 511.239 196.631 482.553 188.798C446.744 179.05 409.476 171.134 371.194 165.144C304.628 154.728 225.32 145.973 156.375 151.766C69.1634 159.077 -11.0808 182.624 -97.4579 192.158" stroke="url(#paint27_linear_16_319)" stroke-miterlimit="10"/>
<path d="M1493.48 203.773C1419.67 202.033 1355.53 175.045 1280.14 183.94C1216.43 191.448 1162.76 214.694 1099.57 222.917C1034.42 231.385 959.971 218.022 896.65 209.134C835.328 200.527 774.809 188.961 712.976 181.678C658.996 175.297 617.594 191.354 566.944 197.616C535.546 201.518 508.86 198.471 480.129 190.746C444.592 181.215 407.53 173.638 369.453 168.119C302.477 158.378 224.27 151.271 155.413 157.071C68.8864 164.352 -11.927 185.633 -97.487 195.394" stroke="url(#paint28_linear_16_319)" stroke-miterlimit="10"/>
<path d="M1493.45 207.647C1419.11 205.825 1354.86 178.579 1278.84 187.273C1215.19 194.556 1161.09 217.306 1097.78 225.147C1032.72 233.209 958.85 219.941 895.629 211.247C834.748 202.879 774.305 191.794 712.669 185.426C658.964 179.878 615.961 194.955 564.927 200.264C533.31 203.553 506.436 200.212 477.606 192.555C442.345 183.26 405.497 176.045 367.645 171.025C300.27 162.009 223.252 156.626 154.428 162.401C68.576 169.596 -12.7405 188.61 -97.5165 198.573" stroke="url(#paint29_linear_16_319)" stroke-miterlimit="10"/>
<path d="M1493.42 211.402C1418.56 209.491 1354.14 181.988 1277.54 190.468C1213.88 197.513 1159.33 219.755 1095.95 227.201C1030.97 234.832 957.686 221.697 894.508 213.204C834.058 205.074 773.702 194.515 712.263 189.055C658.788 184.308 614.152 198.393 562.756 202.7C530.908 205.375 503.847 201.72 474.907 194.176C439.919 185.12 403.287 178.273 365.672 173.761C297.842 165.514 222.135 161.911 153.334 167.643C68.2438 174.745 -13.5535 191.443 -97.5455 201.577" stroke="url(#paint30_linear_16_319)" stroke-miterlimit="10"/>
<path d="M1493.39 215.038C1417.99 213.031 1353.41 185.303 1276.17 193.519C1212.51 200.314 1157.51 222.048 1094.05 229.081C1029.17 236.255 956.478 223.284 893.377 215.004C833.335 207.125 773.089 197.124 711.912 192.565C658.623 188.594 612.366 201.669 560.641 204.973C528.595 207.022 501.326 203.041 472.274 195.59C437.558 186.79 401.146 180.332 363.788 176.348C295.525 168.913 221.151 167.122 152.35 172.81C67.8789 179.789 -14.2336 194.151 -97.4967 204.437" stroke="url(#paint31_linear_16_319)" stroke-miterlimit="10"/>
<path d="M1493.36 218.542C1417.41 216.441 1352.64 188.431 1274.78 196.426C1211.14 202.97 1155.65 224.178 1092.12 230.766C1027.34 237.502 955.26 224.676 892.169 216.622C832.525 208.975 772.409 199.582 711.485 195.919C658.294 192.718 610.459 204.762 558.338 207.058C526.062 208.48 498.682 204.156 469.354 196.804C434.906 188.264 398.715 182.202 361.628 178.759C205.878 163.827 53.1654 188.066 -97.6574 207.121" stroke="url(#paint32_linear_16_319)" stroke-miterlimit="10"/>
<path d="M1493.33 221.934C1416.81 219.725 1351.86 191.471 1273.36 199.208C1209.72 205.483 1153.75 226.157 1090.14 232.351C1025.49 238.649 954.008 225.982 891.05 218.159C831.747 210.77 771.807 201.977 711.157 199.229C657.975 196.798 608.64 207.756 556.134 209.075C523.672 209.877 496.061 205.182 466.567 197.937C432.513 189.516 396.342 184.114 359.612 181.089C207.823 168.581 49.4246 190.792 -97.6304 209.725" stroke="url(#paint33_linear_16_319)" stroke-miterlimit="10"/>
<path d="M1493.3 225.188C1416.22 222.872 1351.07 194.373 1271.93 201.845C1208.28 207.876 1151.85 227.993 1088.16 233.761C1023.62 239.602 952.757 227.105 889.864 219.539C830.882 212.426 771.15 204.247 710.774 202.351C657.491 200.677 606.766 210.586 553.865 210.884C521.217 211.066 493.43 206.009 463.704 198.85C429.87 190.706 393.94 185.761 357.519 183.262C288.134 178.503 217.757 182.259 148.924 187.728C66.3319 194.292 -16.3829 201.512 -97.6582 212.197" stroke="url(#paint34_linear_16_319)" stroke-miterlimit="10"/>
<path d="M1493.27 228.311C1416.29 225.926 1351.22 197.377 1272.17 204.193C1208.77 209.68 1152.23 229.007 1089.05 234.764C1025.17 240.582 955.737 228.589 893.396 221.299C833.131 214.277 772.084 206.446 710.38 205.341C655.604 204.358 602.207 213.711 547.553 212.478C514.564 211.733 487.078 205.562 456.854 198.709C425.459 191.59 392.301 187.478 358.762 185.492C287.376 181.267 216.553 187.094 145.996 192.584C64.5534 198.919 -17.6145 203.75 -97.7188 214.468" stroke="url(#paint35_linear_16_319)" stroke-miterlimit="10"/>
<path d="M1493.25 231.296C1415.74 228.803 1350.41 200.016 1270.77 206.561C1207.36 211.773 1150.37 230.587 1087.09 235.911C1023.35 241.248 954.465 229.425 892.211 222.367C832.233 215.558 771.417 208.322 710.031 208.182C654.933 208.056 600.357 216.148 545.252 213.925C512.22 212.598 484.503 206.076 454.046 199.366C422.861 192.498 389.923 188.812 356.67 187.309C285.05 184.072 215.448 191.817 144.902 197.15C63.9911 203.267 -18.1603 205.764 -97.7014 216.621" stroke="url(#paint36_linear_16_319)" stroke-miterlimit="10"/>
<path d="M1493.22 234.137C1415.13 231.537 1349.67 202.517 1269.35 208.798C1205.92 213.76 1148.49 232.04 1085.12 236.939C1021.51 241.869 953.17 230.129 890.949 223.296C831.302 216.732 770.716 210.135 709.649 210.909C654.151 211.614 598.506 218.471 542.939 215.271C509.864 213.362 481.927 206.495 451.271 199.929C420.351 193.306 387.566 190.045 354.622 189.025C282.811 186.789 214.355 196.414 143.831 201.597C63.4287 207.509 -18.5959 207.659 -97.6733 218.655" stroke="url(#paint37_linear_16_319)" stroke-miterlimit="10"/>
<path d="M1493.2 236.835C1414.56 234.152 1348.82 204.888 1267.94 210.898C1204.5 215.616 1146.63 233.394 1083.16 237.843C1019.69 242.291 951.898 230.708 889.843 224.107C830.339 217.776 770.039 211.786 709.301 213.481C653.315 215.042 596.722 220.645 540.694 216.48C507.554 214.02 479.419 206.784 448.475 200.367C417.532 193.95 385.166 191.148 352.53 190.597C280.718 189.375 213.163 200.836 142.717 205.869C62.7789 211.581 -19.174 209.391 -97.7214 220.551" stroke="url(#paint38_linear_16_319)" stroke-miterlimit="10"/>
<path d="M1493.18 239.388C1414 236.578 1348.03 207.139 1266.58 212.86C1203.11 217.34 1144.82 234.573 1081.26 238.633C1017.96 242.675 950.593 231.168 888.648 224.787C829.32 218.681 769.35 213.305 708.909 215.902C652.368 218.332 594.939 222.688 538.415 217.577C505.376 214.585 476.91 206.972 445.746 200.699C415.155 194.546 382.789 192.131 350.505 192.038C278.69 191.824 211.993 205.064 141.647 209.96C62.0848 215.498 -19.6639 210.973 -97.7256 222.316" stroke="url(#paint39_linear_16_319)" stroke-miterlimit="10"/>
<path d="M1493.16 241.785C1413.45 238.887 1347.29 209.202 1265.25 214.697C1201.74 218.933 1143.04 235.695 1079.4 239.305C1016.17 242.915 949.477 231.497 887.52 225.335C828.313 219.467 768.64 214.681 708.55 218.167C651.399 221.478 593.233 224.586 536.192 218.548C503.165 215.062 474.457 207.067 443.06 200.937C412.613 194.997 380.522 193.002 348.535 193.355C276.829 194.135 210.823 209.092 140.577 213.869C61.4684 219.245 -20.0651 212.387 -97.7627 223.962" stroke="url(#paint40_linear_16_319)" stroke-miterlimit="10"/>
<path d="M1493.13 244.032C1412.93 241.038 1346.53 211.153 1263.95 216.396C1200.41 220.438 1141.27 236.655 1077.6 239.908C1014.5 243.13 948.349 231.732 886.425 225.796C827.328 220.147 767.952 215.943 708.202 220.3C650.409 224.511 591.527 226.391 534.091 219.444C501.098 215.457 472.148 207.086 440.474 201.081C410.214 195.379 378.288 193.754 346.577 194.539C275.056 196.297 209.61 212.894 139.486 217.565C60.753 222.81 -20.532 213.637 -97.8545 225.445" stroke="url(#paint41_linear_16_319)" stroke-miterlimit="10"/>
<path d="M1493.12 246.122C1412.47 243.04 1345.83 212.941 1262.72 217.964C1199.15 221.811 1139.67 237.534 1075.86 240.41C1012.88 243.245 947.211 231.867 885.385 226.131C826.366 220.645 767.286 217.055 707.889 222.264C649.419 227.387 590.01 228.065 532.078 220.234C499.153 215.778 469.927 207.031 438.044 201.163C407.938 195.624 376.187 194.419 344.807 195.611C273.538 198.321 208.542 216.465 138.55 221.073C60.0936 226.219 -20.8547 214.744 -97.8354 226.84" stroke="url(#paint42_linear_16_319)" stroke-miterlimit="10"/>
<path d="M1493.1 248.043C1411.95 244.891 1345.13 214.592 1261.56 219.407C1197.93 223.067 1138.09 238.319 1074.22 240.826C1011.33 243.292 946.173 231.915 884.402 226.354C825.437 221.044 766.644 218.03 707.576 224.072C648.507 230.114 588.515 229.613 530.132 220.931C497.285 216.043 467.773 207.02 435.713 201.176C405.894 195.732 374.098 194.984 343.103 196.584C272.119 200.176 207.485 219.798 137.637 224.344C59.523 229.429 -21.1881 215.67 -97.8381 228.098" stroke="url(#paint43_linear_16_319)" stroke-miterlimit="10"/>
<path d="M1493.03 249.833C1411.44 246.617 1344.47 216.117 1260.41 220.737C1196.8 224.215 1136.61 239.004 1072.66 241.167C1009.92 243.288 945.178 231.875 883.473 226.471C824.541 221.329 766.023 218.861 707.295 225.717C647.462 232.696 587.119 231.074 528.319 221.552C495.539 216.258 465.773 206.896 433.525 201.134C403.827 195.828 372.196 195.455 341.521 197.394C308.05 199.514 275.413 204.471 243.271 209.979C208.587 215.914 172.891 225.007 136.768 227.353C58.9192 232.412 -21.5105 216.401 -97.852 229.206" stroke="url(#paint44_linear_16_319)" stroke-miterlimit="10"/>
<path d="M1493.03 251.397C1411.04 248.131 1343.95 217.437 1259.4 221.893C1195.74 225.252 1135.23 239.626 1071.2 241.445C1008.56 243.248 944.283 231.767 882.634 226.494C823.701 221.465 765.414 219.548 707.027 227.194C646.54 235.116 585.801 232.417 526.572 222.081C493.937 216.373 463.918 206.73 431.503 201.048C401.927 195.867 370.439 195.833 340.061 198.116C306.656 200.618 274.205 206.014 242.25 211.88C207.82 218.197 172.067 227.765 135.955 230.129C58.3495 235.203 -21.821 216.97 -97.8652 230.22" stroke="url(#paint45_linear_16_319)" stroke-miterlimit="10"/>
<path d="M1493.03 252.818C1410.66 249.5 1343.4 218.625 1258.48 222.942C1194.78 226.189 1133.98 240.124 1069.89 241.661C1007.34 243.164 943.499 231.552 881.893 226.411C822.95 221.501 764.871 220.085 706.825 228.514C645.64 237.367 584.627 233.66 524.98 222.54C492.467 216.483 462.228 206.544 429.647 200.925C400.193 195.851 368.891 196.13 338.734 198.72C305.405 201.585 273.119 207.394 241.329 213.586C207.13 220.248 171.332 230.242 135.22 232.644C57.8685 237.786 -22.1092 217.358 -97.9004 231.09" stroke="url(#paint46_linear_16_319)" stroke-miterlimit="10"/>
<path d="M1493.02 254.063C1410.31 250.745 1342.94 219.656 1257.66 223.867C1193.88 227.019 1132.77 240.566 1068.62 241.827C1006.14 243.061 942.694 231.281 881.154 226.24C822.188 221.418 764.274 220.478 706.58 229.64C644.763 239.455 583.598 234.809 523.532 222.962C491.13 216.561 460.693 206.365 427.98 200.796C398.624 195.803 367.433 196.358 337.562 199.231C304.277 202.434 272.167 208.619 240.52 215.111C206.507 222.099 170.687 232.437 134.53 234.895C57.3332 240.15 -22.4408 217.576 -97.9017 231.86" stroke="url(#paint47_linear_16_319)" stroke-miterlimit="10"/>
<path d="M1493.02 255.127C1409.99 251.808 1342.55 220.525 1256.94 224.666C1193.15 227.749 1131.77 240.933 1067.56 241.975C1005.15 242.964 942.12 230.98 880.58 226.007C821.581 221.241 763.776 220.733 706.411 230.615C643.952 241.38 582.755 235.883 522.249 223.31C489.992 216.602 459.378 206.175 426.544 200.642C397.276 195.706 366.239 196.499 336.578 199.623C303.336 203.133 271.369 209.656 239.854 216.424C205.995 223.7 170.207 234.307 133.951 236.834C56.9193 242.258 -22.7503 217.575 -97.9144 232.498" stroke="url(#paint48_linear_16_319)" stroke-miterlimit="10"/>
<path d="M1493.02 256.016C1410.39 252.698 1343.18 221.415 1258.07 225.257C1190.81 228.289 1125.76 242.527 1057.9 242.078C999.89 241.695 941.7 230.766 884.402 225.991C823.526 220.92 765.245 220.925 706.255 231.347C640.843 242.876 579.594 236.596 516.605 222.565C488.368 216.279 461.474 207.732 433.026 201.84C402.922 195.607 369.853 196.132 338.854 199.484C303.678 203.284 269.996 210.591 236.811 218.025C203.361 225.546 167.794 236.16 131.737 238.581C55.4906 243.67 -23.7337 217.504 -97.9048 233.005" stroke="url(#paint49_linear_16_319)" stroke-miterlimit="10"/>
<path d="M1493.02 256.717C1410.16 253.442 1342.95 221.953 1257.6 225.8C1190.32 228.838 1124.98 242.738 1057.14 242.113C999.172 241.574 941.281 230.346 884.017 225.565C823.096 220.481 764.825 220.836 706.121 231.948C640.044 244.463 579.117 237.465 515.61 222.75C487.507 216.24 460.535 207.617 432.01 201.719C401.972 195.479 369.046 196.13 338.224 199.676C303.069 203.72 269.519 211.347 236.434 218.982C203.027 226.691 167.471 237.423 131.325 239.969C55.2217 245.29 -24.0865 217.178 -97.9169 233.437" stroke="url(#paint50_linear_16_319)" stroke-miterlimit="10"/>
<path d="M1493.02 257.217C1409.99 253.992 1342.84 222.316 1257.25 226.225C1189.95 229.3 1124.47 242.9 1056.55 242.125C998.598 241.466 940.984 229.882 883.742 225.063C822.788 219.917 764.428 220.578 706.098 232.367C639.378 245.845 578.938 238.272 514.892 222.942C486.855 216.238 459.817 207.527 431.27 201.56C401.255 195.29 368.616 195.997 337.815 199.713C266.654 208.312 202.852 235.596 131.014 240.964C55.042 246.641 -24.4718 216.645 -97.9174 233.731" stroke="url(#paint51_linear_16_319)" stroke-miterlimit="10"/>
<path d="M1493.02 257.536C1409.86 254.373 1342.73 222.509 1257.03 226.518C1189.73 229.675 1124.03 243.005 1056.14 242.129C998.178 241.371 940.819 229.387 883.599 224.487C822.623 219.265 764.064 220.158 706.064 232.592C638.757 247.026 578.991 239.022 514.339 223.078C486.534 216.237 459.431 207.194 430.817 201.459C400.426 195.375 368.771 195.791 337.638 199.675C266.355 208.573 202.907 235.883 130.813 241.651C54.9399 247.736 -24.9123 215.917 -97.8738 233.918" stroke="url(#paint52_linear_16_319)" stroke-miterlimit="10"/>
<path d="M1493.02 257.656C1409.77 254.58 1342.76 222.528 1256.98 226.694C1189.67 229.963 1123.88 243.068 1055.86 242.136C997.891 241.34 940.754 228.855 883.545 223.843C822.57 218.503 763.701 219.563 706.042 232.63C638.213 248.014 579.288 239.731 514.018 223.185C454.391 208.078 405.275 190.925 337.693 199.544C266.222 208.661 203.073 235.74 130.724 241.983C54.9379 248.525 -25.3302 214.997 -97.9624 233.95" stroke="url(#paint53_linear_16_319)" stroke-miterlimit="10"/>
<defs>
<linearGradient id="paint0_linear_16_319" x1="1481.9" y1="50.9659" x2="-87.4238" y2="171.025" gradientUnits="userSpaceOnUse">
<stop stop-color="#F27D0C"/>
<stop offset="1" stop-color="#CAAD19"/>
</linearGradient>
<linearGradient id="paint1_linear_16_319" x1="1481.86" y1="58.3217" x2="-87.6336" y2="177.354" gradientUnits="userSpaceOnUse">
<stop stop-color="#F27D0C"/>
<stop offset="1" stop-color="#CAAD19"/>
</linearGradient>
<linearGradient id="paint2_linear_16_319" x1="1481.82" y1="65.23" x2="-87.7785" y2="183.929" gradientUnits="userSpaceOnUse">
<stop stop-color="#F27D0C"/>
<stop offset="1" stop-color="#CAAD19"/>
</linearGradient>
<linearGradient id="paint3_linear_16_319" x1="1481.8" y1="71.6854" x2="-87.7334" y2="190.63" gradientUnits="userSpaceOnUse">
<stop stop-color="#F27D0C"/>
<stop offset="1" stop-color="#CAAD19"/>
</linearGradient>
<linearGradient id="paint4_linear_16_319" x1="1481.76" y1="77.7305" x2="-87.6462" y2="197.468" gradientUnits="userSpaceOnUse">
<stop stop-color="#F27D0C"/>
<stop offset="1" stop-color="#CAAD19"/>
</linearGradient>
<linearGradient id="paint5_linear_16_319" x1="1481.73" y1="83.0953" x2="-87.3843" y2="204.787" gradientUnits="userSpaceOnUse">
<stop stop-color="#F27D0C"/>
<stop offset="1" stop-color="#CAAD19"/>
</linearGradient>
<linearGradient id="paint6_linear_16_319" x1="1481.69" y1="88.5657" x2="-87.2198" y2="211.579" gradientUnits="userSpaceOnUse">
<stop stop-color="#F27D0C"/>
<stop offset="1" stop-color="#CAAD19"/>
</linearGradient>
<linearGradient id="paint7_linear_16_319" x1="1481.66" y1="93.7868" x2="-86.923" y2="218.438" gradientUnits="userSpaceOnUse">
<stop stop-color="#F27D0C"/>
<stop offset="1" stop-color="#CAAD19"/>
</linearGradient>
<linearGradient id="paint8_linear_16_319" x1="1481.63" y1="98.769" x2="-86.7051" y2="225.23" gradientUnits="userSpaceOnUse">
<stop stop-color="#F27D0C"/>
<stop offset="1" stop-color="#CAAD19"/>
</linearGradient>
<linearGradient id="paint9_linear_16_319" x1="1481.59" y1="103.593" x2="-86.4546" y2="232.03" gradientUnits="userSpaceOnUse">
<stop stop-color="#F27D0C"/>
<stop offset="1" stop-color="#CAAD19"/>
</linearGradient>
<linearGradient id="paint10_linear_16_319" x1="1481.56" y1="108.305" x2="-86.0754" y2="238.789" gradientUnits="userSpaceOnUse">
<stop stop-color="#F27D0C"/>
<stop offset="1" stop-color="#CAAD19"/>
</linearGradient>
<linearGradient id="paint11_linear_16_319" x1="1481.53" y1="112.694" x2="-85.6481" y2="245.983" gradientUnits="userSpaceOnUse">
<stop stop-color="#F27D0C"/>
<stop offset="1" stop-color="#CAAD19"/>
</linearGradient>
<linearGradient id="paint12_linear_16_319" x1="1481.49" y1="117.238" x2="-85.2772" y2="252.576" gradientUnits="userSpaceOnUse">
<stop stop-color="#F27D0C"/>
<stop offset="1" stop-color="#CAAD19"/>
</linearGradient>
<linearGradient id="paint13_linear_16_319" x1="1481.46" y1="121.794" x2="-84.9868" y2="259.012" gradientUnits="userSpaceOnUse">
<stop stop-color="#F27D0C"/>
<stop offset="1" stop-color="#CAAD19"/>
</linearGradient>
<linearGradient id="paint14_linear_16_319" x1="1481.43" y1="126.363" x2="-84.7392" y2="265.076" gradientUnits="userSpaceOnUse">
<stop stop-color="#F27D0C"/>
<stop offset="1" stop-color="#CAAD19"/>
</linearGradient>
<linearGradient id="paint15_linear_16_319" x1="1481.4" y1="131.06" x2="-84.6209" y2="271.093" gradientUnits="userSpaceOnUse">
<stop stop-color="#F27D0C"/>
<stop offset="1" stop-color="#CAAD19"/>
</linearGradient>
<linearGradient id="paint16_linear_16_319" x1="1481.36" y1="135.883" x2="-84.4983" y2="276.526" gradientUnits="userSpaceOnUse">
<stop stop-color="#F27D0C"/>
<stop offset="1" stop-color="#CAAD19"/>
</linearGradient>
<linearGradient id="paint17_linear_16_319" x1="1481.32" y1="140.81" x2="-84.4957" y2="281.709" gradientUnits="userSpaceOnUse">
<stop stop-color="#F27D0C"/>
<stop offset="1" stop-color="#CAAD19"/>
</linearGradient>
<linearGradient id="paint18_linear_16_319" x1="1481.29" y1="145.672" x2="-84.4048" y2="287.427" gradientUnits="userSpaceOnUse">
<stop stop-color="#F27D0C"/>
<stop offset="1" stop-color="#CAAD19"/>
</linearGradient>
<linearGradient id="paint19_linear_16_319" x1="1481.25" y1="150.439" x2="-84.1568" y2="293.525" gradientUnits="userSpaceOnUse">
<stop stop-color="#F27D0C"/>
<stop offset="1" stop-color="#CAAD19"/>
</linearGradient>
<linearGradient id="paint20_linear_16_319" x1="1481.22" y1="155.145" x2="-83.8398" y2="300.269" gradientUnits="userSpaceOnUse">
<stop stop-color="#F27D0C"/>
<stop offset="1" stop-color="#CAAD19"/>
</linearGradient>
<linearGradient id="paint21_linear_16_319" x1="1481.19" y1="159.727" x2="-83.3572" y2="307.371" gradientUnits="userSpaceOnUse">
<stop stop-color="#F27D0C"/>
<stop offset="1" stop-color="#CAAD19"/>
</linearGradient>
<linearGradient id="paint22_linear_16_319" x1="1481.14" y1="164.248" x2="-82.819" y2="315.05" gradientUnits="userSpaceOnUse">
<stop stop-color="#F27D0C"/>
<stop offset="1" stop-color="#CAAD19"/>
</linearGradient>
<linearGradient id="paint23_linear_16_319" x1="1481.11" y1="168.623" x2="-82.0729" y2="323.099" gradientUnits="userSpaceOnUse">
<stop stop-color="#F27D0C"/>
<stop offset="1" stop-color="#CAAD19"/>
</linearGradient>
<linearGradient id="paint24_linear_16_319" x1="1481.08" y1="172.924" x2="-81.2146" y2="331.801" gradientUnits="userSpaceOnUse">
<stop stop-color="#F27D0C"/>
<stop offset="1" stop-color="#CAAD19"/>
</linearGradient>
<linearGradient id="paint25_linear_16_319" x1="1481.05" y1="177.14" x2="-80.1288" y2="341.197" gradientUnits="userSpaceOnUse">
<stop stop-color="#F27D0C"/>
<stop offset="1" stop-color="#CAAD19"/>
</linearGradient>
<linearGradient id="paint26_linear_16_319" x1="1481.02" y1="181.184" x2="-78.9322" y2="350.955" gradientUnits="userSpaceOnUse">
<stop stop-color="#F27D0C"/>
<stop offset="1" stop-color="#CAAD19"/>
</linearGradient>
<linearGradient id="paint27_linear_16_319" x1="1480.99" y1="185.146" x2="-77.4577" y2="361.545" gradientUnits="userSpaceOnUse">
<stop stop-color="#F27D0C"/>
<stop offset="1" stop-color="#CAAD19"/>
</linearGradient>
<linearGradient id="paint28_linear_16_319" x1="1480.96" y1="188.919" x2="-75.7817" y2="372.528" gradientUnits="userSpaceOnUse">
<stop stop-color="#F27D0C"/>
<stop offset="1" stop-color="#CAAD19"/>
</linearGradient>
<linearGradient id="paint29_linear_16_319" x1="1480.92" y1="192.584" x2="-73.7753" y2="384.429" gradientUnits="userSpaceOnUse">
<stop stop-color="#F27D0C"/>
<stop offset="1" stop-color="#CAAD19"/>
</linearGradient>
<linearGradient id="paint30_linear_16_319" x1="1480.89" y1="196.063" x2="-71.4868" y2="396.85" gradientUnits="userSpaceOnUse">
<stop stop-color="#F27D0C"/>
<stop offset="1" stop-color="#CAAD19"/>
</linearGradient>
<linearGradient id="paint31_linear_16_319" x1="1480.87" y1="199.328" x2="-68.8366" y2="409.669" gradientUnits="userSpaceOnUse">
<stop stop-color="#F27D0C"/>
<stop offset="1" stop-color="#CAAD19"/>
</linearGradient>
<linearGradient id="paint32_linear_16_319" x1="1480.84" y1="202.527" x2="-65.7507" y2="424.19" gradientUnits="userSpaceOnUse">
<stop stop-color="#F27D0C"/>
<stop offset="1" stop-color="#CAAD19"/>
</linearGradient>
<linearGradient id="paint33_linear_16_319" x1="1480.81" y1="204.974" x2="-63.461" y2="434.161" gradientUnits="userSpaceOnUse">
<stop stop-color="#F27D0C"/>
<stop offset="1" stop-color="#CAAD19"/>
</linearGradient>
<linearGradient id="paint34_linear_16_319" x1="1480.78" y1="207.491" x2="-60.3509" y2="446.693" gradientUnits="userSpaceOnUse">
<stop stop-color="#F27D0C"/>
<stop offset="1" stop-color="#CAAD19"/>
</linearGradient>
<linearGradient id="paint35_linear_16_319" x1="1480.75" y1="209.561" x2="-57.6043" y2="457.35" gradientUnits="userSpaceOnUse">
<stop stop-color="#F27D0C"/>
<stop offset="1" stop-color="#CAAD19"/>
</linearGradient>
<linearGradient id="paint36_linear_16_319" x1="1480.74" y1="211.341" x2="-55.0903" y2="466.496" gradientUnits="userSpaceOnUse">
<stop stop-color="#F27D0C"/>
<stop offset="1" stop-color="#CAAD19"/>
</linearGradient>
<linearGradient id="paint37_linear_16_319" x1="1480.71" y1="212.895" x2="-52.8122" y2="474.487" gradientUnits="userSpaceOnUse">
<stop stop-color="#F27D0C"/>
<stop offset="1" stop-color="#CAAD19"/>
</linearGradient>
<linearGradient id="paint38_linear_16_319" x1="1480.69" y1="214.203" x2="-50.7999" y2="481.543" gradientUnits="userSpaceOnUse">
<stop stop-color="#F27D0C"/>
<stop offset="1" stop-color="#CAAD19"/>
</linearGradient>
<linearGradient id="paint39_linear_16_319" x1="1480.67" y1="215.321" x2="-49.0275" y2="487.505" gradientUnits="userSpaceOnUse">
<stop stop-color="#F27D0C"/>
<stop offset="1" stop-color="#CAAD19"/>
</linearGradient>
<linearGradient id="paint40_linear_16_319" x1="1480.66" y1="216.604" x2="-49.146" y2="488.567" gradientUnits="userSpaceOnUse">
<stop stop-color="#F27D0C"/>
<stop offset="1" stop-color="#CAAD19"/>
</linearGradient>
<linearGradient id="paint41_linear_16_319" x1="1480.63" y1="218.18" x2="-51.6813" y2="483.449" gradientUnits="userSpaceOnUse">
<stop stop-color="#F27D0C"/>
<stop offset="1" stop-color="#CAAD19"/>
</linearGradient>
<linearGradient id="paint42_linear_16_319" x1="1480.62" y1="219.578" x2="-54.0123" y2="478.215" gradientUnits="userSpaceOnUse">
<stop stop-color="#F27D0C"/>
<stop offset="1" stop-color="#CAAD19"/>
</linearGradient>
<linearGradient id="paint43_linear_16_319" x1="1480.61" y1="220.796" x2="-56.2257" y2="473.017" gradientUnits="userSpaceOnUse">
<stop stop-color="#F27D0C"/>
<stop offset="1" stop-color="#CAAD19"/>
</linearGradient>
<linearGradient id="paint44_linear_16_319" x1="1480.54" y1="221.862" x2="-58.3477" y2="467.79" gradientUnits="userSpaceOnUse">
<stop stop-color="#F27D0C"/>
<stop offset="1" stop-color="#CAAD19"/>
</linearGradient>
<linearGradient id="paint45_linear_16_319" x1="1480.54" y1="222.758" x2="-60.1722" y2="463.137" gradientUnits="userSpaceOnUse">
<stop stop-color="#F27D0C"/>
<stop offset="1" stop-color="#CAAD19"/>
</linearGradient>
<linearGradient id="paint46_linear_16_319" x1="1480.53" y1="223.524" x2="-61.8602" y2="458.717" gradientUnits="userSpaceOnUse">
<stop stop-color="#F27D0C"/>
<stop offset="1" stop-color="#CAAD19"/>
</linearGradient>
<linearGradient id="paint47_linear_16_319" x1="1480.53" y1="224.167" x2="-63.2944" y2="454.757" gradientUnits="userSpaceOnUse">
<stop stop-color="#F27D0C"/>
<stop offset="1" stop-color="#CAAD19"/>
</linearGradient>
<linearGradient id="paint48_linear_16_319" x1="1480.53" y1="224.678" x2="-64.5484" y2="451.199" gradientUnits="userSpaceOnUse">
<stop stop-color="#F27D0C"/>
<stop offset="1" stop-color="#CAAD19"/>
</linearGradient>
<linearGradient id="paint49_linear_16_319" x1="1480.53" y1="225.037" x2="-65.6682" y2="447.785" gradientUnits="userSpaceOnUse">
<stop stop-color="#F27D0C"/>
<stop offset="1" stop-color="#CAAD19"/>
</linearGradient>
<linearGradient id="paint50_linear_16_319" x1="1480.53" y1="225.339" x2="-66.4928" y2="445.33" gradientUnits="userSpaceOnUse">
<stop stop-color="#F27D0C"/>
<stop offset="1" stop-color="#CAAD19"/>
</linearGradient>
<linearGradient id="paint51_linear_16_319" x1="1480.53" y1="225.494" x2="-67.1745" y2="443.143" gradientUnits="userSpaceOnUse">
<stop stop-color="#F27D0C"/>
<stop offset="1" stop-color="#CAAD19"/>
</linearGradient>
<linearGradient id="paint52_linear_16_319" x1="1480.53" y1="225.602" x2="-67.5391" y2="441.832" gradientUnits="userSpaceOnUse">
<stop stop-color="#F27D0C"/>
<stop offset="1" stop-color="#CAAD19"/>
</linearGradient>
<linearGradient id="paint53_linear_16_319" x1="1480.53" y1="225.895" x2="-67.2896" y2="443.306" gradientUnits="userSpaceOnUse">
<stop stop-color="#F27D0C"/>
<stop offset="1" stop-color="#CAAD19"/>
</linearGradient>
</defs>
</svg>
