<svg width="1440" height="259" viewBox="0 0 1440 259" fill="none" xmlns="http://www.w3.org/2000/svg">
<path d="M1526.47 50.6527C1466.12 50.9026 1400.84 47.4049 1341.53 53.8967C1244.92 64.471 1155.59 90.1632 1060 102.974C1024.64 107.718 991.066 110.151 956.802 101.705C927.573 94.5102 903.394 81.9384 880.618 69.6826C840.418 48.0246 797.618 18.3751 738.815 14.5168C701.09 12.0398 663.908 23.4511 632.087 33.4604C596.154 44.7619 562.017 57.7886 526.094 69.1026C493.533 79.3605 454.869 91.3254 416.207 88.114C382.946 85.3531 354.558 72.4962 330.457 60.0872C283.677 36.011 234.578 -2.62725 163.76 0.752817C81.1521 4.70043 19.4105 44.3617 -64.4759 47.0109" stroke="url(#paint0_linear_16_374)" strokeOpacity="0.5" stroke-miterlimit="10"/>
<path d="M1526.43 57.8683C1465.74 58.1925 1400.64 53.7628 1340.96 60.6417C1246.32 71.5523 1159.32 97.5878 1065.74 110.704C1030.08 115.716 997.29 117.913 962.639 109.573C932.957 102.427 907.805 90.178 884.178 78.0142C842.63 56.641 797.851 27.0933 739.106 22.334C701.725 19.3008 664.83 30.475 633.297 40.441C597.972 51.625 564.553 64.572 529.25 75.7498C496.788 86.0267 458.489 97.6482 420.004 93.9929C386.711 90.8251 357.816 77.9107 333.173 65.6319C285.773 42.055 235.058 4.37676 164.782 7.708C81.8097 11.636 19.725 51.5531 -64.526 54.1889" stroke="url(#paint1_linear_16_374)" strokeOpacity="0.5" stroke-miterlimit="10"/>
<path d="M1526.39 64.9462C1465.28 65.2506 1400.22 59.6883 1340.12 66.923C1247.64 78.045 1163.17 104.355 1071.79 117.708C1035.98 122.939 1003.82 124.862 968.876 116.759C938.664 109.756 912.572 97.8552 888.027 85.9083C844.743 64.9129 798.395 35.7872 739.486 30.1764C702.548 26.6623 666.306 37.3498 635.083 47.2477C600.531 58.2082 567.964 71.0445 533.434 82.0175C501.093 92.3009 463.536 103.342 425.285 99.2931C391.838 95.7432 362.346 82.8775 336.962 70.766C288.611 47.7063 236.081 11.1755 166.181 14.4888C82.7001 18.4469 20.1399 58.632 -64.6195 61.2855" stroke="url(#paint2_linear_16_374)" strokeOpacity="0.5" stroke-miterlimit="10"/>
<path d="M1526.37 71.8867C1464.76 72.0961 1399.72 65.2321 1339.08 72.7847C1248.92 84.0122 1167.13 110.567 1078.11 124C1042.32 129.412 1010.6 131.048 975.479 123.295C944.725 116.503 917.715 105.014 892.164 93.4278C846.912 72.9035 799.148 44.4693 740.02 38.0694C668.664 30.3398 596.45 69.5515 538.569 87.981C506.35 98.2459 469.811 108.52 431.891 104.096C398.18 100.157 368.069 87.4155 341.812 75.4835C292.234 52.9592 237.735 17.7256 168.011 21.0581C83.9112 25.0711 20.7535 65.5489 -64.6136 68.2448" stroke="url(#paint3_linear_16_374)" strokeOpacity="0.5" stroke-miterlimit="10"/>
<path d="M1526.33 78.683C1464.18 78.7348 1399.13 70.4314 1337.86 78.2516C1250.12 89.4909 1171.15 116.177 1084.6 129.659C1048.94 135.21 1017.52 136.54 982.304 129.231C950.986 122.72 923.036 111.735 896.479 100.51C849.259 80.5627 800.068 53.0702 740.643 45.8936C670.372 37.4218 601.264 75.5016 544.456 93.6332C513.044 103.643 476.428 113.723 439.549 108.444C405.31 103.547 375.163 91.7937 347.415 79.8395C296.41 57.8814 239.808 24.0636 170.084 27.4337C85.2663 31.5264 21.434 72.3094 -64.6514 75.085" stroke="url(#paint4_linear_16_374)" strokeOpacity="0.5" stroke-miterlimit="10"/>
<path d="M1526.29 85.3478C1463.56 85.2042 1398.45 75.336 1336.49 83.4489C1251.25 94.6125 1175.17 121.418 1091.18 134.831C945.281 158.147 869.402 70.6642 741.333 53.6615C672.301 44.4853 606.688 81.1963 550.907 98.961C519.639 108.903 484.44 117.94 448.026 112.368C413.357 107.063 382.502 95.5653 353.637 83.8338C301.04 62.4353 242.236 30.1457 172.369 33.5718C86.7661 37.7566 22.1818 78.857 -64.6993 81.7059" stroke="url(#paint5_linear_16_374)" strokeOpacity="0.5" stroke-miterlimit="10"/>
<path d="M1526.25 91.869C1462.91 91.4612 1397.7 79.9969 1335 88.3521C1252.3 99.3714 1179.13 126.246 1097.75 139.546C954.871 162.888 868.077 79.5669 742.077 61.3736C674.24 51.568 612.564 86.6546 557.8 104.077C526.665 113.982 493.004 121.821 457.11 116C421.978 110.288 390.338 99.0755 360.313 87.5854C306.024 66.8089 244.973 36.06 174.807 39.5667C88.3648 43.881 22.9733 85.28 -64.7477 88.2271" stroke="url(#paint6_linear_16_374)" strokeOpacity="0.5" stroke-miterlimit="10"/>
<path d="M1526.22 98.2524C1462.25 97.574 1396.9 84.4574 1333.42 93.0235C1253.25 103.842 1183.08 130.755 1104.21 143.879C964.364 167.159 866.798 88.3569 742.844 68.9729C676.223 58.5569 618.739 91.9195 564.938 109C533.913 118.849 501.924 125.422 466.582 119.414C430.964 113.331 398.507 102.361 367.287 91.1499C311.251 70.9952 247.944 41.837 177.424 45.4243C90.1301 49.8743 23.8761 91.5842 -64.7179 94.6357" stroke="url(#paint7_linear_16_374)" strokeOpacity="0.5" stroke-miterlimit="10"/>
<path d="M1526.18 104.498C1461.59 103.543 1396.07 88.7672 1331.74 97.5129C1254.05 108.087 1186.77 135.019 1110.45 147.924C973.569 171.072 865.54 96.9652 743.623 76.4406C678.208 65.4265 625.036 97.0154 572.153 113.767C541.261 123.553 510.832 128.821 476.076 122.602C439.963 116.136 406.654 105.44 374.262 94.5013C316.468 74.9684 250.925 47.4072 179.963 51.0873C91.7521 55.6667 24.6797 97.6689 -64.7985 100.856" stroke="url(#paint8_linear_16_374)" strokeOpacity="0.5" stroke-miterlimit="10"/>
<path d="M1526.14 110.6C1460.96 109.374 1395.22 92.9772 1330.15 101.871C1254.84 112.169 1190.4 139.101 1116.51 151.755C982.344 174.729 864.273 105.405 744.335 83.7521C680.115 72.1525 631.267 101.968 579.246 118.42C548.487 128.144 519.553 132.108 485.461 125.716C448.85 118.86 414.701 108.406 381.149 97.7653C321.652 78.8919 253.918 52.8715 182.469 56.6318C93.3742 61.3406 25.4726 103.685 -64.8787 106.945" stroke="url(#paint9_linear_16_374)" strokeOpacity="0.5" stroke-miterlimit="10"/>
<path d="M1526.11 116.57C1460.27 115.086 1394.38 97.1307 1328.52 106.148C1255.48 116.151 1193.75 143.07 1122.16 155.454C990.568 178.221 863.028 113.669 745.104 90.8882C681.956 78.6903 637.476 106.857 586.174 122.98C555.515 132.61 528.097 135.363 494.58 128.791C457.495 121.546 422.517 111.296 387.871 100.96C326.737 82.7273 256.911 58.2228 184.965 62.0822C95.03 66.9142 26.3321 109.563 -64.848 112.928" stroke="url(#paint10_linear_16_374)" strokeOpacity="0.5" stroke-miterlimit="10"/>
<path d="M1526.07 122.396C1459.62 120.692 1393.54 101.272 1326.94 110.382C1255.99 120.082 1196.82 147.007 1127.37 159.102C1060 170.839 988.395 157.251 925.529 142.763C864.904 128.787 807.284 110.506 745.75 97.8175C683.4 84.958 643.553 111.802 592.638 127.507C525.029 148.348 455.893 121.561 394.094 104.153C331.479 86.5368 259.683 63.4798 187.262 67.4257C96.531 72.3623 27.0811 115.31 -64.9058 118.761" stroke="url(#paint11_linear_16_374)" strokeOpacity="0.5" stroke-miterlimit="10"/>
<path d="M1526.04 128.091C1458.97 126.204 1392.88 105.451 1325.43 114.627C1256.36 124.032 1199.55 150.944 1131.97 162.774C1065.22 174.474 991.722 161.433 928.555 148.152C866.702 135.143 807.841 118.017 746.321 104.509C684.8 91.0004 648.79 116.533 598.528 132.014C532.455 152.358 460.441 123.562 399.711 107.37C335.779 90.3266 262.157 68.6547 189.338 72.656C97.8999 77.6849 27.7643 120.919 -64.8967 124.449" stroke="url(#paint12_linear_16_374)" strokeOpacity="0.5" stroke-miterlimit="10"/>
<path d="M1526 133.642C1458.3 131.61 1392.27 109.705 1324.04 118.936C1256.62 128.05 1201.89 154.954 1136.1 166.557C1069.86 178.202 994.684 165.682 931.227 153.49C868.278 141.386 808.233 125.278 746.814 110.95C717.838 104.193 696.593 103.869 668.543 112.435C645.745 119.399 626.453 129.543 603.688 136.556C573.317 145.924 549.143 145.606 517.373 138.518C479.197 129.988 442.008 120.196 404.554 110.68C339.549 94.2092 264.322 73.7852 191.171 77.8233C99.1034 82.9071 28.3816 126.428 -64.9424 130" stroke="url(#paint13_linear_16_374)" strokeOpacity="0.5" stroke-miterlimit="10"/>
<path d="M1525.97 139.062C1457.64 137.028 1391.81 114.085 1322.78 123.345C1256.7 132.212 1203.84 159.221 1139.38 170.526C1073.48 182.084 996.917 170.075 933.204 158.789C869.49 147.503 808.328 132.218 747.109 117.058C718.819 110.053 698.127 109.023 670.321 117.546C648.275 124.305 629.867 134.313 607.876 141.122C577.67 150.478 553.874 149.422 522.656 142.103C484.294 133.11 446.531 123.336 408.368 114.08C342.545 98.1211 265.846 78.8202 192.585 82.8706C100.008 87.9845 28.811 131.767 -64.9661 135.364" stroke="url(#paint14_linear_16_374)" strokeOpacity="0.5" stroke-miterlimit="10"/>
<path d="M1525.93 144.331C1456.96 142.346 1391.51 118.615 1321.71 127.899C1256.61 136.568 1205.39 163.787 1141.83 174.756C1076.02 186.127 998.63 174.653 934.517 164.162C869.885 153.594 808.191 138.939 747.228 122.954C719.513 115.694 699.055 114.132 671.458 122.655C650.009 129.271 632.342 139.219 610.959 145.898C580.896 155.285 557.123 153.697 526.382 146.105C487.966 136.629 449.76 126.829 411.011 117.766C344.756 102.263 266.773 83.9479 193.568 87.9671C100.627 93.0739 29.0861 137.106 -65.0887 140.689" stroke="url(#paint15_linear_16_374)" strokeOpacity="0.5" stroke-miterlimit="10"/>
<path d="M1525.9 149.469C1456.3 147.651 1391.41 123.352 1320.83 132.659C1256.41 141.155 1206.3 168.495 1143.5 179.334C1077.9 190.649 999.492 179.418 935.212 169.57C869.916 159.564 807.945 145.304 747.271 128.461C720.01 120.889 699.442 119.027 671.989 127.607C650.982 134.174 633.867 144.129 612.892 150.759C582.94 160.228 558.837 158.37 528.46 150.434C490.123 140.421 451.63 130.551 412.45 121.637C345.995 106.521 267.104 89.0179 194.197 92.9752C101.036 98.0252 29.3176 142.295 -65.078 145.827" stroke="url(#paint16_linear_16_374)" strokeOpacity="0.5" stroke-miterlimit="10"/>
<path d="M1525.86 154.476C1455.9 152.826 1391.47 128.265 1320.46 137.659C1256.26 146.148 1206.44 173.464 1143.84 184.242C1078.31 195.519 999.547 184.062 935.245 174.421C869.716 164.595 807.943 150.442 747.193 133.524C720.031 125.952 699.175 124.34 671.91 132.864C651.046 139.387 634.042 149.255 613.179 155.797C583.326 165.154 558.78 163.345 528.692 155.185C490.521 144.834 451.984 134.889 412.638 126.062C346.503 111.223 266.584 93.9107 194.24 98.0258C101.211 103.308 29.0303 146.825 -65.1233 150.815" stroke="url(#paint17_linear_16_374)" strokeOpacity="0.5" stroke-miterlimit="10"/>
<path d="M1525.82 159.401C1455.71 157.826 1391.47 133.103 1320.29 142.609C1256.19 151.174 1206.12 178.257 1143.48 188.966C1077.94 200.168 999.361 188.217 935.158 178.513C869.84 168.638 808.332 154.51 747.16 138.387C689.256 123.128 660.488 146.324 612.737 160.721C582.885 169.721 558.184 168.013 528.372 159.821C490.367 149.377 451.897 139.457 412.562 130.73C346.812 116.148 265.855 98.7529 194.03 103.232C101.396 109.015 28.3365 150.754 -65.1895 155.665" stroke="url(#paint18_linear_16_374)" strokeOpacity="0.5" stroke-miterlimit="10"/>
<path d="M1525.79 164.251C1455.47 162.726 1391.38 137.821 1319.98 147.408C1255.88 156.023 1205.62 182.819 1142.94 193.427C1077.4 204.542 999.054 192.14 934.951 182.406C869.886 172.525 808.61 158.46 747.083 143.143C689.663 128.843 659.869 151.624 612.085 165.364C582.235 173.969 557.313 172.31 527.766 164.107C489.938 153.606 451.578 143.762 412.254 135.186C346.769 120.898 265.005 103.683 193.775 108.476C101.605 114.674 27.6542 154.588 -65.1887 160.315" stroke="url(#paint19_linear_16_374)" strokeOpacity="0.5" stroke-miterlimit="10"/>
<path d="M1525.76 169.013C1455.19 167.525 1391.2 142.421 1319.54 152.051C1255.52 160.653 1204.95 187.141 1142.23 197.637C1076.7 208.564 998.604 195.856 934.622 186.116C869.867 176.267 808.723 162.309 746.973 147.83C689.96 134.476 659.15 156.747 611.247 169.843C581.32 178.016 556.21 176.357 526.884 168.16C489.266 157.641 450.983 147.91 411.724 139.534C346.404 125.585 264.142 108.787 193.398 113.838C101.68 120.381 26.883 158.41 -65.2545 164.871" stroke="url(#paint20_linear_16_374)" strokeOpacity="0.5" stroke-miterlimit="10"/>
<path d="M1525.72 173.695C1454.86 172.218 1390.99 146.92 1318.97 156.556C1255 165.108 1204.13 191.295 1141.35 201.578C1075.84 212.311 998.143 199.322 934.183 189.613C869.781 179.828 808.825 166.014 746.819 152.398C690.235 139.971 658.343 161.652 610.221 174.033C580.195 181.762 554.887 180.046 525.748 171.875C488.425 161.304 450.121 151.886 411.008 143.663C345.742 130.096 263.247 113.911 192.911 119.201C101.789 126.02 26.0791 162.12 -65.2532 169.214" stroke="url(#paint21_linear_16_374)" strokeOpacity="0.5" stroke-miterlimit="10"/>
<path d="M1525.68 178.288C1454.5 176.811 1390.65 151.294 1318.27 160.916C1254.36 169.4 1203.15 195.236 1140.29 205.305C1074.8 215.794 997.439 202.606 933.6 192.941C869.541 183.257 808.75 169.631 746.598 156.891C690.432 145.373 657.393 166.406 608.985 178.03C578.817 185.276 553.321 183.466 524.348 175.333C487.249 164.832 449.085 155.589 410.059 147.654C344.759 134.506 262.273 119.191 192.312 124.625C101.776 131.659 25.2086 165.773 -65.3296 173.438" stroke="url(#paint22_linear_16_374)" strokeOpacity="0.5" stroke-miterlimit="10"/>
<path d="M1525.65 182.781C1454.1 181.297 1390.27 155.561 1317.48 165.107C1253.61 173.485 1202.03 198.944 1139.16 208.77C1073.7 218.996 996.747 205.652 932.964 196.069C869.379 186.536 808.61 173.123 746.39 161.278C690.619 150.655 656.366 170.966 607.629 181.794C577.296 188.533 551.602 186.591 522.75 178.471C485.905 168.07 447.912 159.033 409.013 151.419C343.601 138.752 261.367 124.445 191.704 130.012C101.797 137.191 24.4057 169.282 -65.3159 177.431" stroke="url(#paint23_linear_16_374)" strokeOpacity="0.5" stroke-miterlimit="10"/>
<path d="M1525.62 187.187C1453.67 185.671 1389.78 159.69 1316.57 169.185C1252.75 177.413 1200.8 202.465 1137.86 212.021C1072.45 221.947 995.912 208.511 932.272 199.034C869.129 189.627 808.425 176.515 746.181 165.57C690.795 155.837 655.262 175.376 606.162 185.364C575.643 191.552 549.75 189.465 520.987 181.414C484.385 171.136 446.55 162.339 407.766 155.089C342.144 142.904 260.371 129.794 190.962 135.461C101.706 142.767 23.5246 172.759 -65.3584 181.342" stroke="url(#paint24_linear_16_374)" strokeOpacity="0.5" stroke-miterlimit="10"/>
<path d="M1525.58 191.493C1453.21 189.938 1389.33 163.707 1315.58 173.07C1251.8 181.172 1199.44 205.797 1136.43 215.053C1071.08 224.648 995.022 211.168 931.47 201.811C868.769 192.574 808.119 179.787 745.928 169.757C690.916 160.869 654.026 179.603 604.541 188.721C573.813 194.377 547.722 192.071 519.025 184.145C482.679 174.022 445.023 165.491 406.388 158.628C340.51 146.994 259.397 135.218 190.187 140.955C101.594 148.262 22.6768 176.181 -65.3672 185.129" stroke="url(#paint25_linear_16_374)" strokeOpacity="0.5" stroke-miterlimit="10"/>
<path d="M1525.55 195.692C1452.72 194.086 1388.78 167.605 1314.57 176.835C1250.76 184.743 1197.99 208.942 1134.9 217.872C1069.62 227.11 994.088 213.638 930.536 204.418C868.298 195.376 807.693 182.953 745.565 173.842C690.927 165.826 652.603 183.68 602.711 191.883C571.763 196.969 545.485 194.443 516.81 186.555C480.728 176.609 443.259 168.374 404.79 161.935C338.657 150.888 258.358 140.541 189.302 146.347C101.405 153.699 21.7858 179.426 -65.4193 188.689" stroke="url(#paint26_linear_16_374)" strokeOpacity="0.5" stroke-miterlimit="10"/>
<path d="M1525.52 199.766C1452.24 198.115 1388.22 171.383 1313.36 180.456C1249.64 188.183 1196.43 211.905 1133.28 220.491C1068.08 229.359 993.066 215.92 929.657 206.882C867.872 198.054 807.31 186.037 745.313 177.841C691.015 170.657 651.179 187.639 600.903 194.883C569.736 199.387 543.248 196.629 514.561 188.797C478.752 179.049 441.484 171.132 403.202 165.142C336.637 154.726 257.328 145.971 188.383 151.765C101.172 159.075 20.9275 182.623 -65.4496 192.157" stroke="url(#paint27_linear_16_374)" strokeOpacity="0.5" stroke-miterlimit="10"/>
<path d="M1525.49 203.771C1451.68 202.032 1387.54 175.043 1312.14 183.939C1248.44 191.447 1194.77 214.692 1131.58 222.915C1066.43 231.383 991.979 218.02 928.658 209.133C867.337 200.525 806.817 188.959 744.984 181.677C691.005 175.295 649.602 191.353 598.952 197.614C567.555 201.516 540.868 198.47 512.138 190.744C476.6 181.213 439.538 173.636 401.461 168.117C334.485 158.376 256.278 151.269 187.421 157.069C100.895 164.35 20.0813 185.631 -65.4787 195.392" stroke="url(#paint28_linear_16_374)" strokeOpacity="0.5" stroke-miterlimit="10"/>
<path d="M1525.46 207.645C1451.12 205.823 1386.87 178.577 1310.84 187.271C1247.2 194.554 1193.1 217.304 1129.79 225.145C1064.73 233.207 990.858 219.939 927.636 211.246C866.756 202.877 806.313 191.793 744.677 185.424C690.971 179.876 647.969 194.953 596.935 200.263C565.318 203.551 538.444 200.21 509.614 192.553C474.353 183.258 437.505 176.043 399.653 171.023C332.278 162.007 255.26 156.624 186.436 162.399C100.584 169.594 19.2673 188.608 -65.5087 198.571" stroke="url(#paint29_linear_16_374)" strokeOpacity="0.5" stroke-miterlimit="10"/>
<path d="M1525.43 211.4C1450.57 209.489 1386.15 181.986 1309.54 190.466C1245.89 197.511 1191.33 219.753 1127.95 227.2C1062.98 234.83 989.695 221.695 926.516 213.202C866.066 205.072 805.71 194.513 744.271 189.053C690.796 184.306 646.161 198.391 594.764 202.698C562.916 205.373 535.856 201.719 506.915 194.174C471.928 185.118 435.295 178.272 397.681 173.76C329.85 165.512 254.143 161.91 185.342 167.641C100.252 174.743 18.4548 191.441 -65.5372 201.575" stroke="url(#paint30_linear_16_374)" strokeOpacity="0.5" stroke-miterlimit="10"/>
<path d="M1525.4 215.036C1450 213.03 1385.41 185.301 1308.18 193.517C1244.52 200.312 1189.52 222.046 1126.06 229.079C1061.18 236.253 988.487 223.282 925.385 215.002C865.344 207.123 805.097 197.122 743.921 192.563C690.632 188.593 644.375 201.667 592.649 204.971C560.604 207.02 533.334 203.04 504.282 195.588C469.566 186.788 433.154 180.33 395.797 176.346C327.534 168.911 253.159 167.12 184.358 172.808C99.8872 179.787 17.7747 194.149 -65.4884 204.435" stroke="url(#paint31_linear_16_374)" strokeOpacity="0.5" stroke-miterlimit="10"/>
<path d="M1525.37 218.54C1449.41 216.439 1384.65 188.429 1306.79 196.424C1243.15 202.968 1187.66 224.176 1124.12 230.764C1059.35 237.5 987.268 224.675 924.178 216.62C864.533 208.973 804.417 199.58 743.493 195.917C690.302 192.716 642.467 204.76 590.346 207.056C558.07 208.478 530.691 204.154 501.363 196.802C466.914 188.262 430.723 182.2 393.637 178.757C237.887 163.825 85.1737 188.064 -65.6491 207.119" stroke="url(#paint32_linear_16_374)" strokeOpacity="0.5" stroke-miterlimit="10"/>
<path d="M1525.34 221.932C1448.82 219.723 1383.86 191.469 1305.37 199.206C1241.73 205.481 1185.76 226.155 1122.15 232.349C1057.49 238.647 986.017 225.98 923.058 218.157C863.755 210.768 803.815 201.975 743.165 199.227C689.983 196.796 640.648 207.754 588.143 209.073C555.68 209.875 528.07 205.18 498.576 197.935C464.521 189.515 428.35 184.112 391.62 181.087C239.831 168.579 81.4329 190.79 -65.6221 209.723" stroke="url(#paint33_linear_16_374)" strokeOpacity="0.5" stroke-miterlimit="10"/>
<path d="M1525.31 225.186C1448.23 222.87 1383.07 194.371 1303.94 201.843C1240.28 207.875 1183.86 227.991 1120.17 233.759C1055.62 239.601 984.766 227.103 921.873 219.537C862.89 212.424 803.158 204.245 742.782 202.349C689.499 200.675 638.775 210.584 585.874 210.882C553.225 211.064 525.438 206.007 495.712 198.848C461.878 190.704 425.949 185.759 389.527 183.26C320.142 178.501 249.766 182.258 180.932 187.726C98.3402 194.29 15.6254 201.51 -65.6499 212.195" stroke="url(#paint34_linear_16_374)" strokeOpacity="0.5" stroke-miterlimit="10"/>
<path d="M1525.28 228.309C1448.3 225.924 1383.23 197.375 1304.18 204.191C1240.78 209.678 1184.24 229.006 1121.05 234.762C1057.18 240.58 987.745 228.587 925.404 221.297C865.139 214.275 804.092 206.444 742.389 205.339C687.612 204.356 634.215 213.709 579.561 212.476C546.572 211.731 519.086 205.56 488.862 198.707C457.468 191.588 424.309 187.476 390.77 185.49C319.385 181.265 248.561 187.092 178.004 192.582C96.5617 198.917 14.3938 203.748 -65.7105 214.466" stroke="url(#paint35_linear_16_374)" strokeOpacity="0.5" stroke-miterlimit="10"/>
<path d="M1525.26 231.295C1447.75 228.802 1382.42 200.014 1302.78 206.56C1239.37 211.771 1182.38 230.585 1119.1 235.91C1055.36 241.246 986.473 229.423 924.22 222.365C864.242 215.556 803.425 208.32 742.04 208.18C686.941 208.054 632.365 216.146 577.26 213.923C544.228 212.596 516.511 206.074 486.055 199.364C454.869 192.496 421.931 188.81 388.678 187.307C317.058 184.07 247.457 191.815 176.911 197.148C95.9994 203.265 13.848 205.762 -65.6931 216.619" stroke="url(#paint36_linear_16_374)" strokeOpacity="0.5" stroke-miterlimit="10"/>
<path d="M1525.23 234.136C1447.14 231.535 1381.67 202.516 1301.36 208.797C1237.93 213.758 1180.5 232.039 1117.13 236.938C1053.52 241.867 985.178 230.127 922.958 223.294C863.311 216.731 802.725 210.133 741.658 210.907C686.159 211.613 630.514 218.47 574.947 215.27C541.872 213.36 513.935 206.493 483.28 199.927C452.359 193.304 419.574 190.044 386.63 189.023C314.82 186.787 246.363 196.412 175.84 201.595C95.437 207.507 13.4124 207.657 -65.665 218.653" stroke="url(#paint37_linear_16_374)" strokeOpacity="0.5" stroke-miterlimit="10"/>
<path d="M1525.2 236.833C1446.57 234.15 1380.83 204.886 1299.95 210.896C1236.51 215.614 1178.64 233.393 1115.17 237.841C1051.7 242.289 983.907 230.706 921.851 224.106C862.347 217.774 802.047 211.784 741.309 213.479C685.323 215.041 628.731 220.644 572.702 216.479C539.562 214.018 511.427 206.782 480.484 200.365C449.54 193.949 417.175 191.146 384.539 190.596C312.726 189.374 245.171 200.834 174.725 205.867C94.7872 211.58 12.8343 209.389 -65.7131 220.55" stroke="url(#paint38_linear_16_374)" strokeOpacity="0.5" stroke-miterlimit="10"/>
<path d="M1525.19 239.386C1446.01 236.577 1380.04 207.137 1298.59 212.858C1235.11 217.338 1176.83 234.571 1113.27 238.631C1049.97 242.673 982.602 231.166 920.656 224.785C861.329 218.679 801.358 213.304 740.917 215.9C684.376 218.33 626.947 222.686 570.423 217.575C537.384 214.583 508.918 206.97 477.754 200.697C447.164 194.544 414.797 192.129 382.513 192.037C310.698 191.822 244.001 205.062 173.655 209.958C94.0931 215.496 12.3444 210.972 -65.7173 222.314" stroke="url(#paint39_linear_16_374)" strokeOpacity="0.5" stroke-miterlimit="10"/>
<path d="M1525.17 241.783C1445.46 238.885 1379.29 209.2 1297.26 214.695C1233.75 218.931 1175.05 235.694 1111.41 239.303C1048.18 242.913 981.485 231.495 919.528 225.333C860.321 219.465 800.648 214.679 740.558 218.165C683.408 221.476 625.241 224.584 568.2 218.546C535.173 215.06 506.465 207.065 475.068 200.935C444.621 194.995 412.53 193 380.544 193.353C308.837 194.133 242.832 209.09 172.585 213.867C93.4767 219.243 11.9432 212.385 -65.7544 223.96" stroke="url(#paint40_linear_16_374)" strokeOpacity="0.5" stroke-miterlimit="10"/>
<path d="M1525.14 244.03C1444.94 241.036 1378.54 211.151 1295.96 216.394C1232.42 220.436 1173.28 236.653 1109.61 239.906C1046.51 243.128 980.357 231.731 918.433 225.794C859.336 220.145 799.96 215.941 740.211 220.298C682.417 224.509 623.535 226.389 566.099 219.442C533.106 215.455 504.156 207.084 472.483 201.079C442.223 195.377 410.296 193.752 378.585 194.537C307.064 196.295 241.619 212.892 171.494 217.563C92.7613 222.809 11.4763 213.636 -65.8462 225.443" stroke="url(#paint41_linear_16_374)" strokeOpacity="0.5" stroke-miterlimit="10"/>
<path d="M1525.13 246.12C1444.48 243.038 1377.84 212.94 1294.73 217.962C1231.16 221.81 1171.68 237.532 1107.87 240.409C1044.89 243.243 979.219 231.866 917.394 226.129C858.374 220.643 799.295 217.054 739.897 222.262C681.428 227.385 622.018 228.063 564.086 220.233C531.161 215.777 501.936 207.029 470.052 201.161C439.946 195.623 408.196 194.417 376.815 195.61C305.546 198.319 240.55 216.463 170.558 221.072C92.1019 226.218 11.1536 214.743 -65.8271 226.839" stroke="url(#paint42_linear_16_374)" strokeOpacity="0.5" stroke-miterlimit="10"/>
<path d="M1525.11 248.041C1443.96 244.889 1377.14 214.59 1293.57 219.405C1229.94 223.065 1170.1 238.317 1106.22 240.824C1043.34 243.29 978.181 231.913 916.41 226.352C857.445 221.042 798.652 218.028 739.584 224.07C680.516 230.112 620.523 229.611 562.141 220.929C529.294 216.041 499.781 207.018 467.721 201.175C437.902 195.731 406.106 194.982 375.112 196.582C304.128 200.174 239.493 219.796 169.645 224.343C91.5313 229.427 10.8202 215.668 -65.8298 228.097" stroke="url(#paint43_linear_16_374)" strokeOpacity="0.5" stroke-miterlimit="10"/>
<path d="M1525.04 249.831C1443.44 246.615 1376.48 216.116 1292.42 220.736C1228.81 224.214 1168.62 239.002 1104.66 241.165C1041.93 243.287 977.186 231.874 915.482 226.469C856.549 221.328 798.031 218.859 739.303 225.715C679.471 232.694 619.127 231.073 560.327 221.551C527.547 216.256 497.782 206.895 465.533 201.132C435.836 195.826 404.205 195.453 373.53 197.392C340.059 199.512 307.421 204.469 275.279 209.978C240.595 215.912 204.899 225.005 168.776 227.351C90.9275 232.411 10.4978 216.4 -65.8437 229.204" stroke="url(#paint44_linear_16_374)" strokeOpacity="0.5" stroke-miterlimit="10"/>
<path d="M1525.04 251.396C1443.04 248.129 1375.96 217.435 1291.41 221.891C1227.75 225.25 1167.24 239.625 1103.21 241.443C1040.57 243.246 976.292 231.765 914.642 226.492C855.71 221.463 797.422 219.546 739.035 227.192C678.548 235.114 617.81 232.415 558.58 222.079C525.945 216.372 495.926 206.728 463.512 201.046C433.935 195.865 402.447 195.831 372.07 198.114C338.664 200.616 306.213 206.012 274.259 211.878C239.828 218.195 204.075 227.763 167.963 230.128C90.3578 235.201 10.1873 216.968 -65.8569 230.218" stroke="url(#paint45_linear_16_374)" strokeOpacity="0.5" stroke-miterlimit="10"/>
<path d="M1525.03 252.816C1442.66 249.498 1375.41 218.623 1290.49 222.941C1226.79 226.187 1165.99 240.122 1101.9 241.659C1039.35 243.162 975.508 231.551 913.902 226.409C854.958 221.499 796.879 220.083 738.833 228.512C677.648 237.365 616.636 233.658 556.988 222.538C524.475 216.481 494.236 206.542 461.656 200.923C432.201 195.849 400.9 196.128 370.742 198.718C337.413 201.584 305.127 207.392 273.338 213.584C239.138 220.246 203.34 230.24 167.228 232.642C89.8768 237.784 9.89908 217.356 -65.8921 231.088" stroke="url(#paint46_linear_16_374)" strokeOpacity="0.5" stroke-miterlimit="10"/>
<path d="M1525.03 254.062C1442.32 250.743 1374.95 219.654 1289.67 223.865C1225.89 227.017 1164.78 240.564 1100.63 241.825C1038.15 243.059 974.702 231.28 913.162 226.239C854.196 221.416 796.282 220.476 738.587 229.638C676.771 239.453 615.605 234.807 555.54 222.96C523.138 216.559 492.7 206.364 459.987 200.794C430.632 195.801 399.441 196.356 369.57 199.229C336.284 202.432 304.174 208.617 272.528 215.109C238.515 222.097 202.694 232.435 166.538 234.893C89.341 240.149 9.56704 217.574 -65.8939 231.858" stroke="url(#paint47_linear_16_374)" strokeOpacity="0.5" stroke-miterlimit="10"/>
<path d="M1525.03 255.125C1442 251.806 1374.56 220.523 1288.95 224.664C1225.16 227.748 1163.78 240.931 1099.57 241.973C1037.15 242.963 974.128 230.978 912.588 226.006C853.589 221.24 795.784 220.732 738.419 230.614C675.959 241.379 614.763 235.882 554.257 223.308C522 216.6 491.386 206.173 458.551 200.641C429.284 195.705 398.247 196.497 368.586 199.621C335.344 203.131 303.376 209.654 271.862 216.422C238.003 223.698 202.215 234.305 165.959 236.832C88.9272 242.257 9.25751 217.573 -65.9066 232.496" stroke="url(#paint48_linear_16_374)" strokeOpacity="0.5" stroke-miterlimit="10"/>
<path d="M1525.03 256.014C1442.4 252.696 1375.19 221.413 1290.07 225.255C1222.81 228.287 1157.77 242.526 1089.91 242.076C1031.9 241.693 973.709 230.764 916.411 225.989C855.534 220.919 797.253 220.923 738.263 231.345C672.852 242.874 611.602 236.594 548.613 222.563C520.377 216.277 493.482 207.73 465.034 201.838C434.93 195.605 401.861 196.13 370.862 199.482C335.686 203.282 302.004 210.59 268.82 218.023C235.37 225.544 199.802 236.158 163.745 238.579C87.4989 243.668 8.2746 217.502 -65.8965 233.003" stroke="url(#paint49_linear_16_374)" strokeOpacity="0.5" stroke-miterlimit="10"/>
<path d="M1525.03 256.715C1442.17 253.44 1374.96 221.951 1289.61 225.799C1222.33 228.836 1156.99 242.737 1089.15 242.112C1031.18 241.572 973.29 230.344 916.025 225.563C855.104 220.48 796.833 220.834 738.129 231.946C672.052 244.461 611.125 237.463 547.618 222.748C519.515 216.238 492.543 207.615 464.018 201.717C433.981 195.478 401.054 196.128 370.232 199.675C335.077 203.719 301.528 211.346 268.442 218.98C235.036 226.689 199.479 237.422 163.333 239.968C87.23 245.288 7.92177 217.176 -65.9086 233.435" stroke="url(#paint50_linear_16_374)" strokeOpacity="0.5" stroke-miterlimit="10"/>
<path d="M1525.02 257.216C1442 253.99 1374.84 222.314 1289.25 226.223C1221.96 229.298 1156.48 242.898 1088.55 242.123C1030.61 241.465 972.992 229.88 915.75 225.062C854.796 219.915 796.436 220.577 738.106 232.365C671.386 245.843 610.946 238.27 546.9 222.941C518.863 216.236 491.825 207.526 463.278 201.559C433.262 195.288 400.624 195.996 369.823 199.711C298.662 208.31 234.86 235.594 163.021 240.962C87.0498 246.639 7.53597 216.643 -65.9095 233.729" stroke="url(#paint51_linear_16_374)" strokeOpacity="0.5" stroke-miterlimit="10"/>
<path d="M1525.02 257.534C1441.87 254.371 1374.73 222.507 1289.04 226.517C1221.74 229.673 1156.04 243.003 1088.15 242.128C1030.19 241.369 972.828 229.385 915.608 224.485C854.632 219.264 796.073 220.156 738.072 232.59C670.765 247.024 611 239.02 546.347 223.077C518.543 216.235 491.439 207.193 462.825 201.457C432.434 195.373 400.779 195.789 369.646 199.673C298.363 208.572 234.915 235.882 162.821 241.649C86.9482 247.734 7.09598 215.916 -65.8655 233.916" stroke="url(#paint52_linear_16_374)" strokeOpacity="0.5" stroke-miterlimit="10"/>
<path d="M1525.02 257.654C1441.78 254.578 1374.77 222.526 1288.99 226.692C1221.68 229.961 1155.89 243.066 1087.87 242.134C1029.9 241.338 972.763 228.853 915.554 223.841C854.578 218.501 795.709 219.561 738.05 232.628C670.221 248.012 611.296 239.729 546.026 223.183C486.399 208.076 437.283 190.923 369.702 199.542C298.23 208.66 235.081 235.738 162.732 241.981C86.9462 248.523 6.6781 214.995 -65.9541 233.948" stroke="url(#paint53_linear_16_374)" strokeOpacity="0.5" stroke-miterlimit="10"/>
<defs>
<linearGradient id="paint0_linear_16_374" x1="1513.91" y1="50.9642" x2="-55.415" y2="171.024" gradientUnits="userSpaceOnUse">
<stop stop-color="#F27D0C"/>
<stop offset="1" stop-color="#CAAD19"/>
</linearGradient>
<linearGradient id="paint1_linear_16_374" x1="1513.87" y1="58.32" x2="-55.6253" y2="177.352" gradientUnits="userSpaceOnUse">
<stop stop-color="#F27D0C"/>
<stop offset="1" stop-color="#CAAD19"/>
</linearGradient>
<linearGradient id="paint2_linear_16_374" x1="1513.83" y1="65.2283" x2="-55.7702" y2="183.927" gradientUnits="userSpaceOnUse">
<stop stop-color="#F27D0C"/>
<stop offset="1" stop-color="#CAAD19"/>
</linearGradient>
<linearGradient id="paint3_linear_16_374" x1="1513.81" y1="71.6838" x2="-55.7251" y2="190.628" gradientUnits="userSpaceOnUse">
<stop stop-color="#F27D0C"/>
<stop offset="1" stop-color="#CAAD19"/>
</linearGradient>
<linearGradient id="paint4_linear_16_374" x1="1513.77" y1="77.7288" x2="-55.6379" y2="197.467" gradientUnits="userSpaceOnUse">
<stop stop-color="#F27D0C"/>
<stop offset="1" stop-color="#CAAD19"/>
</linearGradient>
<linearGradient id="paint5_linear_16_374" x1="1513.74" y1="83.0934" x2="-55.376" y2="204.785" gradientUnits="userSpaceOnUse">
<stop stop-color="#F27D0C"/>
<stop offset="1" stop-color="#CAAD19"/>
</linearGradient>
<linearGradient id="paint6_linear_16_374" x1="1513.7" y1="88.564" x2="-55.2115" y2="211.577" gradientUnits="userSpaceOnUse">
<stop stop-color="#F27D0C"/>
<stop offset="1" stop-color="#CAAD19"/>
</linearGradient>
<linearGradient id="paint7_linear_16_374" x1="1513.67" y1="93.7852" x2="-54.9146" y2="218.436" gradientUnits="userSpaceOnUse">
<stop stop-color="#F27D0C"/>
<stop offset="1" stop-color="#CAAD19"/>
</linearGradient>
<linearGradient id="paint8_linear_16_374" x1="1513.63" y1="98.7672" x2="-54.6968" y2="225.228" gradientUnits="userSpaceOnUse">
<stop stop-color="#F27D0C"/>
<stop offset="1" stop-color="#CAAD19"/>
</linearGradient>
<linearGradient id="paint9_linear_16_374" x1="1513.6" y1="103.591" x2="-54.4463" y2="232.028" gradientUnits="userSpaceOnUse">
<stop stop-color="#F27D0C"/>
<stop offset="1" stop-color="#CAAD19"/>
</linearGradient>
<linearGradient id="paint10_linear_16_374" x1="1513.57" y1="108.303" x2="-54.0671" y2="238.787" gradientUnits="userSpaceOnUse">
<stop stop-color="#F27D0C"/>
<stop offset="1" stop-color="#CAAD19"/>
</linearGradient>
<linearGradient id="paint11_linear_16_374" x1="1513.54" y1="112.692" x2="-53.6398" y2="245.981" gradientUnits="userSpaceOnUse">
<stop stop-color="#F27D0C"/>
<stop offset="1" stop-color="#CAAD19"/>
</linearGradient>
<linearGradient id="paint12_linear_16_374" x1="1513.5" y1="117.236" x2="-53.2689" y2="252.574" gradientUnits="userSpaceOnUse">
<stop stop-color="#F27D0C"/>
<stop offset="1" stop-color="#CAAD19"/>
</linearGradient>
<linearGradient id="paint13_linear_16_374" x1="1513.47" y1="121.792" x2="-52.9785" y2="259.01" gradientUnits="userSpaceOnUse">
<stop stop-color="#F27D0C"/>
<stop offset="1" stop-color="#CAAD19"/>
</linearGradient>
<linearGradient id="paint14_linear_16_374" x1="1513.44" y1="126.362" x2="-52.7314" y2="265.074" gradientUnits="userSpaceOnUse">
<stop stop-color="#F27D0C"/>
<stop offset="1" stop-color="#CAAD19"/>
</linearGradient>
<linearGradient id="paint15_linear_16_374" x1="1513.4" y1="131.058" x2="-52.6131" y2="271.091" gradientUnits="userSpaceOnUse">
<stop stop-color="#F27D0C"/>
<stop offset="1" stop-color="#CAAD19"/>
</linearGradient>
<linearGradient id="paint16_linear_16_374" x1="1513.37" y1="135.881" x2="-52.49" y2="276.524" gradientUnits="userSpaceOnUse">
<stop stop-color="#F27D0C"/>
<stop offset="1" stop-color="#CAAD19"/>
</linearGradient>
<linearGradient id="paint17_linear_16_374" x1="1513.33" y1="140.808" x2="-52.4879" y2="281.708" gradientUnits="userSpaceOnUse">
<stop stop-color="#F27D0C"/>
<stop offset="1" stop-color="#CAAD19"/>
</linearGradient>
<linearGradient id="paint18_linear_16_374" x1="1513.29" y1="145.67" x2="-52.3965" y2="287.425" gradientUnits="userSpaceOnUse">
<stop stop-color="#F27D0C"/>
<stop offset="1" stop-color="#CAAD19"/>
</linearGradient>
<linearGradient id="paint19_linear_16_374" x1="1513.26" y1="150.437" x2="-52.1485" y2="293.523" gradientUnits="userSpaceOnUse">
<stop stop-color="#F27D0C"/>
<stop offset="1" stop-color="#CAAD19"/>
</linearGradient>
<linearGradient id="paint20_linear_16_374" x1="1513.23" y1="155.143" x2="-51.8315" y2="300.267" gradientUnits="userSpaceOnUse">
<stop stop-color="#F27D0C"/>
<stop offset="1" stop-color="#CAAD19"/>
</linearGradient>
<linearGradient id="paint21_linear_16_374" x1="1513.2" y1="159.725" x2="-51.3489" y2="307.37" gradientUnits="userSpaceOnUse">
<stop stop-color="#F27D0C"/>
<stop offset="1" stop-color="#CAAD19"/>
</linearGradient>
<linearGradient id="paint22_linear_16_374" x1="1513.15" y1="164.246" x2="-50.8107" y2="315.048" gradientUnits="userSpaceOnUse">
<stop stop-color="#F27D0C"/>
<stop offset="1" stop-color="#CAAD19"/>
</linearGradient>
<linearGradient id="paint23_linear_16_374" x1="1513.12" y1="168.621" x2="-50.0646" y2="323.097" gradientUnits="userSpaceOnUse">
<stop stop-color="#F27D0C"/>
<stop offset="1" stop-color="#CAAD19"/>
</linearGradient>
<linearGradient id="paint24_linear_16_374" x1="1513.09" y1="172.923" x2="-49.2063" y2="331.799" gradientUnits="userSpaceOnUse">
<stop stop-color="#F27D0C"/>
<stop offset="1" stop-color="#CAAD19"/>
</linearGradient>
<linearGradient id="paint25_linear_16_374" x1="1513.06" y1="177.138" x2="-48.1205" y2="341.196" gradientUnits="userSpaceOnUse">
<stop stop-color="#F27D0C"/>
<stop offset="1" stop-color="#CAAD19"/>
</linearGradient>
<linearGradient id="paint26_linear_16_374" x1="1513.03" y1="181.182" x2="-46.9239" y2="350.954" gradientUnits="userSpaceOnUse">
<stop stop-color="#F27D0C"/>
<stop offset="1" stop-color="#CAAD19"/>
</linearGradient>
<linearGradient id="paint27_linear_16_374" x1="1512.99" y1="185.144" x2="-45.4494" y2="361.543" gradientUnits="userSpaceOnUse">
<stop stop-color="#F27D0C"/>
<stop offset="1" stop-color="#CAAD19"/>
</linearGradient>
<linearGradient id="paint28_linear_16_374" x1="1512.96" y1="188.917" x2="-43.7734" y2="372.526" gradientUnits="userSpaceOnUse">
<stop stop-color="#F27D0C"/>
<stop offset="1" stop-color="#CAAD19"/>
</linearGradient>
<linearGradient id="paint29_linear_16_374" x1="1512.93" y1="192.582" x2="-41.7675" y2="384.427" gradientUnits="userSpaceOnUse">
<stop stop-color="#F27D0C"/>
<stop offset="1" stop-color="#CAAD19"/>
</linearGradient>
<linearGradient id="paint30_linear_16_374" x1="1512.9" y1="196.061" x2="-39.4785" y2="396.849" gradientUnits="userSpaceOnUse">
<stop stop-color="#F27D0C"/>
<stop offset="1" stop-color="#CAAD19"/>
</linearGradient>
<linearGradient id="paint31_linear_16_374" x1="1512.87" y1="199.326" x2="-36.8283" y2="409.667" gradientUnits="userSpaceOnUse">
<stop stop-color="#F27D0C"/>
<stop offset="1" stop-color="#CAAD19"/>
</linearGradient>
<linearGradient id="paint32_linear_16_374" x1="1512.84" y1="202.525" x2="-33.7424" y2="424.188" gradientUnits="userSpaceOnUse">
<stop stop-color="#F27D0C"/>
<stop offset="1" stop-color="#CAAD19"/>
</linearGradient>
<linearGradient id="paint33_linear_16_374" x1="1512.82" y1="204.972" x2="-31.4527" y2="434.159" gradientUnits="userSpaceOnUse">
<stop stop-color="#F27D0C"/>
<stop offset="1" stop-color="#CAAD19"/>
</linearGradient>
<linearGradient id="paint34_linear_16_374" x1="1512.79" y1="207.489" x2="-28.3426" y2="446.691" gradientUnits="userSpaceOnUse">
<stop stop-color="#F27D0C"/>
<stop offset="1" stop-color="#CAAD19"/>
</linearGradient>
<linearGradient id="paint35_linear_16_374" x1="1512.76" y1="209.559" x2="-25.596" y2="457.348" gradientUnits="userSpaceOnUse">
<stop stop-color="#F27D0C"/>
<stop offset="1" stop-color="#CAAD19"/>
</linearGradient>
<linearGradient id="paint36_linear_16_374" x1="1512.75" y1="211.339" x2="-23.082" y2="466.494" gradientUnits="userSpaceOnUse">
<stop stop-color="#F27D0C"/>
<stop offset="1" stop-color="#CAAD19"/>
</linearGradient>
<linearGradient id="paint37_linear_16_374" x1="1512.72" y1="212.894" x2="-20.8039" y2="474.486" gradientUnits="userSpaceOnUse">
<stop stop-color="#F27D0C"/>
<stop offset="1" stop-color="#CAAD19"/>
</linearGradient>
<linearGradient id="paint38_linear_16_374" x1="1512.7" y1="214.201" x2="-18.7916" y2="481.542" gradientUnits="userSpaceOnUse">
<stop stop-color="#F27D0C"/>
<stop offset="1" stop-color="#CAAD19"/>
</linearGradient>
<linearGradient id="paint39_linear_16_374" x1="1512.68" y1="215.32" x2="-17.0192" y2="487.504" gradientUnits="userSpaceOnUse">
<stop stop-color="#F27D0C"/>
<stop offset="1" stop-color="#CAAD19"/>
</linearGradient>
<linearGradient id="paint40_linear_16_374" x1="1512.67" y1="216.602" x2="-17.1377" y2="488.565" gradientUnits="userSpaceOnUse">
<stop stop-color="#F27D0C"/>
<stop offset="1" stop-color="#CAAD19"/>
</linearGradient>
<linearGradient id="paint41_linear_16_374" x1="1512.64" y1="218.179" x2="-19.673" y2="483.447" gradientUnits="userSpaceOnUse">
<stop stop-color="#F27D0C"/>
<stop offset="1" stop-color="#CAAD19"/>
</linearGradient>
<linearGradient id="paint42_linear_16_374" x1="1512.63" y1="219.576" x2="-22.004" y2="478.213" gradientUnits="userSpaceOnUse">
<stop stop-color="#F27D0C"/>
<stop offset="1" stop-color="#CAAD19"/>
</linearGradient>
<linearGradient id="paint43_linear_16_374" x1="1512.61" y1="220.794" x2="-24.2174" y2="473.015" gradientUnits="userSpaceOnUse">
<stop stop-color="#F27D0C"/>
<stop offset="1" stop-color="#CAAD19"/>
</linearGradient>
<linearGradient id="paint44_linear_16_374" x1="1512.55" y1="221.861" x2="-26.3394" y2="467.788" gradientUnits="userSpaceOnUse">
<stop stop-color="#F27D0C"/>
<stop offset="1" stop-color="#CAAD19"/>
</linearGradient>
<linearGradient id="paint45_linear_16_374" x1="1512.54" y1="222.756" x2="-28.1639" y2="463.135" gradientUnits="userSpaceOnUse">
<stop stop-color="#F27D0C"/>
<stop offset="1" stop-color="#CAAD19"/>
</linearGradient>
<linearGradient id="paint46_linear_16_374" x1="1512.54" y1="223.522" x2="-29.8519" y2="458.715" gradientUnits="userSpaceOnUse">
<stop stop-color="#F27D0C"/>
<stop offset="1" stop-color="#CAAD19"/>
</linearGradient>
<linearGradient id="paint47_linear_16_374" x1="1512.54" y1="224.165" x2="-31.2866" y2="454.755" gradientUnits="userSpaceOnUse">
<stop stop-color="#F27D0C"/>
<stop offset="1" stop-color="#CAAD19"/>
</linearGradient>
<linearGradient id="paint48_linear_16_374" x1="1512.54" y1="224.676" x2="-32.5405" y2="451.197" gradientUnits="userSpaceOnUse">
<stop stop-color="#F27D0C"/>
<stop offset="1" stop-color="#CAAD19"/>
</linearGradient>
<linearGradient id="paint49_linear_16_374" x1="1512.54" y1="225.035" x2="-33.6599" y2="447.783" gradientUnits="userSpaceOnUse">
<stop stop-color="#F27D0C"/>
<stop offset="1" stop-color="#CAAD19"/>
</linearGradient>
<linearGradient id="paint50_linear_16_374" x1="1512.54" y1="225.338" x2="-34.4845" y2="445.328" gradientUnits="userSpaceOnUse">
<stop stop-color="#F27D0C"/>
<stop offset="1" stop-color="#CAAD19"/>
</linearGradient>
<linearGradient id="paint51_linear_16_374" x1="1512.54" y1="225.493" x2="-35.1667" y2="443.142" gradientUnits="userSpaceOnUse">
<stop stop-color="#F27D0C"/>
<stop offset="1" stop-color="#CAAD19"/>
</linearGradient>
<linearGradient id="paint52_linear_16_374" x1="1512.54" y1="225.6" x2="-35.5308" y2="441.83" gradientUnits="userSpaceOnUse">
<stop stop-color="#F27D0C"/>
<stop offset="1" stop-color="#CAAD19"/>
</linearGradient>
<linearGradient id="paint53_linear_16_374" x1="1512.54" y1="225.894" x2="-35.2813" y2="443.304" gradientUnits="userSpaceOnUse">
<stop stop-color="#F27D0C"/>
<stop offset="1" stop-color="#CAAD19"/>
</linearGradient>
</defs>
</svg>
